<?xml version="1.0" encoding="UTF-8" standalone="no"?>
<!DOCTYPE svg PUBLIC "-//W3C//DTD SVG 1.1//EN" "http://www.w3.org/Graphics/SVG/1.1/DTD/svg11.dtd">
<svg width="100%" height="100%" viewBox="0 0 810 942" version="1.1" xmlns="http://www.w3.org/2000/svg" xmlns:xlink="http://www.w3.org/1999/xlink" xml:space="preserve" xmlns:serif="http://www.serif.com/" style="fill-rule:evenodd;clip-rule:evenodd;stroke-linejoin:round;stroke-miterlimit:2;">
    <g id="ArtBoard1" transform="matrix(1.0562,0,0,1.01819,-156.918,-1.08231)">
        <rect x="148.568" y="1.063" width="766.788" height="925.139" style="fill:none;"/>
        <clipPath id="_clip1">
            <rect x="148.568" y="1.063" width="766.788" height="925.139"/>
        </clipPath>
        <g clip-path="url(#_clip1)">
            <g transform="matrix(0.0946791,0,0,-0.0982138,46.5996,1007.56)">
                <path d="M5041,10173C4995,10149 4938,10116 4916,10101C4893,10086 4862,10067 4845,10058C4769,10021 4634,9945 4629,9938C4624,9930 4551,9889 4480,9854C4461,9844 4429,9824 4410,9810C4391,9795 4349,9771 4318,9757C4286,9743 4237,9716 4208,9697C4149,9659 4028,9591 3989,9574C3975,9567 3936,9544 3903,9521C3870,9499 3821,9470 3794,9459C3767,9447 3736,9430 3725,9420C3714,9410 3674,9385 3635,9365C3499,9292 3475,9278 3460,9266C3452,9260 3432,9248 3415,9240C3399,9232 3383,9223 3380,9220C3374,9214 3344,9197 3270,9157C3240,9141 3204,9120 3190,9111C3161,9093 3150,9087 3055,9035C3017,9015 2976,8990 2965,8981C2954,8972 2914,8949 2875,8930C2837,8911 2804,8892 2802,8888C2800,8884 2793,8880 2786,8880C2779,8880 2765,8872 2754,8861C2743,8851 2724,8839 2712,8836C2700,8832 2684,8823 2677,8817C2662,8803 2621,8780 2535,8737C2502,8721 2473,8704 2470,8700C2465,8692 2281,8590 2272,8590C2269,8590 2262,8584 2256,8576C2250,8568 2207,8542 2160,8518C2056,8464 2030,8449 2012,8433C2000,8421 1991,8418 1974,8421C1970,8421 1964,8418 1961,8413C1954,8402 1817,8320 1806,8320C1802,8320 1771,8300 1737,8277C1703,8253 1659,8227 1640,8220C1621,8213 1598,8201 1589,8193C1581,8186 1568,8180 1562,8180C1556,8180 1545,8174 1537,8166C1525,8154 1314,8030 1305,8030C1303,8030 1266,8008 1223,7982C1180,7955 1130,7927 1112,7919L1080,7905L1080,3219L1108,3207C1124,3200 1172,3173 1216,3147C1259,3120 1331,3078 1375,3053C1621,2914 1689,2875 1755,2835C1788,2815 1847,2781 1885,2759C1924,2737 2020,2681 2100,2635C2180,2589 2283,2530 2330,2504C2377,2478 2433,2445 2455,2430C2477,2415 2531,2384 2575,2360C2619,2336 2666,2309 2680,2300C2733,2263 2846,2206 2859,2208C2866,2210 2869,2207 2866,2202C2863,2197 2883,2183 2910,2170C2938,2157 2960,2144 2960,2140C2960,2137 2997,2114 3043,2090C3088,2066 3155,2027 3192,2003C3229,1979 3262,1960 3265,1960C3271,1960 3550,1800 3655,1737C3683,1720 3741,1687 3785,1662C3829,1638 3888,1603 3917,1584C3945,1565 3971,1550 3975,1550C3978,1550 4019,1528 4066,1500C4113,1473 4152,1450 4155,1450C4157,1450 4178,1437 4202,1421C4226,1405 4270,1380 4300,1365C4330,1349 4369,1327 4385,1315C4402,1303 4455,1272 4504,1246C4552,1220 4610,1185 4633,1169C4655,1153 4677,1140 4681,1140C4686,1140 4724,1120 4766,1095C4807,1070 4845,1050 4848,1050C4852,1050 4878,1035 4905,1017C4933,997.998 4987,965.996 5025,945C5064,925 5100,902.998 5107,897.998C5114,892.002 5132,897.002 5157,912.002C5178,925 5208,940.996 5223,947.998C5238,955 5248,965 5245,970C5242,975 5245,977.002 5253,974.004C5260,972.002 5290,985 5319,1005C5348,1024 5374,1040 5377,1040C5379,1040 5414,1059 5453,1082C5493,1105 5543,1133 5565,1143C5618,1169 5650.99,1195 5642,1205C5638,1210 5640,1210 5645.99,1207C5658,1200 5832,1291 5858,1317C5865,1324 5875.99,1330 5880.99,1330C5887,1330 5888,1335 5884,1342C5880,1349 5880.99,1350 5889,1346C5900.99,1338 6009,1394 6067,1436C6084,1449 6103,1460 6109,1460C6115,1460 6129,1470 6140.99,1483C6153,1495 6160,1500 6155.99,1493C6153,1487 6167,1491 6189,1503C6210.99,1515 6225.99,1528 6223,1533C6220.99,1537 6222,1539 6227,1538C6243,1533 6319,1573 6313,1583C6310,1589 6312,1590 6318,1586C6324,1583 6348,1593 6372,1608C6395.99,1624 6435.99,1647 6462,1660C6488,1673 6505.99,1688 6503,1693C6500,1699 6502,1700 6508,1696C6514,1692 6543,1705 6572,1725C6600.99,1744 6628,1760 6630.99,1760C6649,1760 6869,1897 6863,1904C6858,1908 6862,1911 6870,1909C6887,1906 6945,1934 6974,1959C6984,1968 6994,1974 6995.99,1973C7008,1965 7020,1972 7014,1982C7010,1989 7010,1992 7015,1988C7025.99,1978 7082,2009 7075,2021C7070.99,2026 7072,2029 7077,2028C7094,2024 7130,2042 7124,2052C7120,2058 7120.99,2060 7125.99,2057C7137,2051 7235,2099 7297,2141C7320,2157 7340.99,2170 7345,2170C7352,2170 7513,2261 7520,2269C7523,2273 7530,2276 7537,2277C7543,2278 7568,2292 7592,2308C7615,2324 7660,2350 7690,2366C7772,2408 7840.99,2456 7832,2465C7828,2470 7830,2470 7837,2466C7853,2457 7940.99,2501 7933,2514C7930,2520 7930,2522 7935,2518C7947,2507 8002,2539 7994,2552C7990,2558 7990.99,2560 7998,2556C8003,2553 8055.99,2577 8114,2610C8172,2643 8222,2670 8225,2670C8228,2670 8259,2688 8292,2710C8325.99,2732 8358,2750 8363,2750C8367,2750 8368,2756 8364,2763C8360,2769 8360,2772 8365,2768C8369,2764 8382,2766 8394,2772C8405,2779 8417,2784 8420,2785C8439,2786 8538,2856 8533,2864C8530,2870 8530.99,2872 8535,2867C8540,2863 8554,2867 8567,2875C8580,2884 8590,2888 8590,2885C8590,2883 8623,2900 8663,2925C8702,2949 8758,2981 8787,2996C8815.99,3011 8837,3027 8833,3033C8830,3039 8832,3040 8838,3036C8844,3033 8872,3043 8900,3060C8928,3076 8953,3090 8955.99,3090C8959,3090 8980,3103 9003,3118C9025.99,3134 9065,3158 9090,3171C9115,3184 9140.99,3202 9148,3210C9158,3221 9160,3221 9154,3211C9149,3202 9150.99,3199 9158,3204C9167,3209 9170,3793 9170,5550L9170,7890L9118,7916C9090,7930 9044,7957 9016,7975C8988,7993 8918,8033 8860,8065C8802,8097 8744,8130 8730,8140C8716,8149 8669,8176 8625,8200C8581,8223 8528,8254 8507,8268C8486,8282 8427,8317 8377,8346C7939,8595 7880.99,8629 7810,8673C7780,8692 7719,8727 7675,8750C7630.99,8773 7588,8798 7580,8805C7572,8813 7540,8832 7510,8848C7480,8864 7422,8896 7380.99,8919C7340,8941 7304,8960 7299,8960C7295,8960 7290,8964 7288,8969C7287,8974 7238,9004 7180,9035C7122,9066 7068,9098 7060,9105C7052,9112 7009,9137 6965,9161C6920.99,9184 6862,9218 6835,9235C6780,9270 6682,9325 6635,9348C6619,9357 6587,9375 6565,9390C6543,9405 6489,9436 6445.99,9460C6403,9483 6349,9515 6327,9531C6305,9547 6283,9560 6278,9560C6273,9560 6230.99,9583 6184,9610C6137,9638 6098,9660 6095,9660C6093,9660 6070.99,9673 6048,9689C6024,9705 5973,9735 5935,9755C5897,9774 5859,9797 5850,9805C5842,9812 5795,9839 5745.99,9865C5697,9890 5643,9922 5625.99,9934C5598,9955 5478,10023 5405,10058C5389,10066 5360.99,10083 5345,10095C5328,10107 5272,10140 5220,10168L5125,10218L5041,10173ZM5255,9787C5266,9779 5394,9705 5470,9663C5495,9650 5576,9603 5650,9559C5724,9515 5810,9466 5840,9449C5870,9433 5951,9386 6020,9344C6089,9303 6163,9261 6186,9250C6208,9239 6237,9222 6251,9212C6264,9201 6307,9176 6345,9156C6384,9136 6444,9102 6480,9081C6516,9061 6565,9032 6590,9018C6615,9004 6694,8958 6765,8915C6837,8873 6920,8824 6950,8808C6980,8791 7012,8772 7020,8765C7028,8759 7062,8740 7095,8725C7128,8709 7164,8689 7175,8679C7186,8670 7231,8643 7275,8620C7319,8597 7369,8568 7385,8556C7402,8544 7438,8524 7465,8511C7493,8498 7522,8481 7530,8474C7538,8467 7568,8450 7595,8435C7623,8421 7683,8386 7730,8359C7777,8331 7829,8301 7845,8291C7862,8282 7886,8267 7900,8259C7928,8241 7984,8209 8240,8062C8336,8007 8463,7934 8523,7899C8582,7864 8659,7819 8694,7800C8729,7781 8780,7752 8809,7735L8860,7705L8860,5543C8860,3457 8859,3381 8842,3376C8832,3372 8766,3336 8695,3295C8625,3254 8562,3223 8556,3227C8550,3230 8548,3229 8553,3225C8560,3217 8356,3090 8337,3090C8332,3090 8314,3079 8297,3066C8257,3036 8142,2977 8124,2977C8117,2977 8113,2974 8115,2970C8117,2966 8100,2953 8077,2940C8054,2927 7970,2879 7890,2832C7708,2725 7554,2637 7470,2592C7434,2573 7398,2551 7390,2545C7382,2538 7345,2516 7309,2496C7272,2477 7221,2447 7194,2431C7167,2415 7125,2391 7100,2378C7075,2366 7033,2342 7005,2324C6916,2269 6858,2240 6847,2247C6842,2250 6840,2249 6843,2243C6848,2235 6725,2155 6686,2141C6680,2139 6668,2132 6660,2125C6652,2118 6621,2100 6592,2085C6563,2070 6537,2054 6534.01,2049C6531,2044 6522,2040 6514.01,2040C6506,2040 6478,2025 6452,2007C6426,1989 6376,1960 6340,1941C6304.01,1923 6264.01,1899 6251,1889C6238,1878 6223,1870 6219.01,1870C6214.01,1870 6181,1852 6145,1830C6108,1808 6073,1793 6067,1796C6060,1800 6058,1799 6062,1795C6067,1790 6040,1769 6002,1748C5965,1726 5928,1705 5920,1699C5912,1694 5884,1679 5858,1665C5832,1651 5769,1615 5718,1584C5667,1553 5599,1515 5568,1500C5536,1485 5513,1470 5517,1466C5520,1463 5517,1460 5509,1459C5501,1459 5439,1425 5370,1385C5301,1344 5218,1297 5185,1279L5125,1248L5080,1271C5055,1284 5016,1307 4993,1322C4970,1337 4948,1350 4945,1350C4941,1350 4886,1381 4822,1419C4612,1542 4416,1655 4406,1659C4400,1661 4379,1672 4360,1685C4341,1697 4260,1744 4180,1790C4100,1835 4024,1880 4010,1890C3996,1899 3954,1924 3915,1944C3877,1965 3825,1994 3800,2010C3775,2026 3749,2039 3743,2039C3736,2040 3730,2045 3730,2050C3730,2056 3725,2060 3720,2060C3711,2060 3645,2096 3590,2130C3528,2169 3320,2290 3315,2290C3311,2290 3285,2305 3257,2323C3228,2341 3180,2369 3150,2385C3120,2400 3088,2418 3080,2425C3072,2431 3020,2462 2965,2494C2910,2525 2858,2555 2850,2560C2832,2570 2697,2648 2520,2749C2451,2788 2388,2825 2380,2830C2354,2847 2138,2972 2060,3015C2019,3038 1958,3073 1925,3092C1820,3153 1656,3250 1640,3260C1632,3265 1594,3287 1555,3308C1517,3329 1466,3358 1443,3371L1400,3395L1400,7715L1422,7730C1435,7738 1461,7752 1480,7762C1499,7772 1536,7793 1563,7810C1589,7826 1611,7839 1613,7838C1615,7836 1624,7841 1745,7917C1789,7944 1832,7970 1840,7973C1848,7977 1869,7989 1885,7999C1902,8010 1922,8019 1931,8019C1939,8020 1956,8029 1967,8040C1979,8050 2017,8074 2052,8092C2087,8111 2130,8136 2147,8148C2165,8160 2194,8177 2212,8186C2230,8194 2254,8207 2265,8213C2276,8220 2317,8243 2355,8265C2394,8286 2460,8325 2502,8352C2545,8378 2581,8400 2583,8400C2585,8400 2643,8432 2711,8470C2779,8509 2840,8540 2847,8540C2854,8540 2860,8544 2860,8549C2860,8558 2902,8583 3030,8653C3060,8670 3087,8686 3090,8690C3093,8693 3129,8713 3170,8734C3211,8755 3252,8778 3260,8785C3268,8792 3304,8814 3340,8832C3424,8876 3504,8921 3510,8929C3513,8932 3529,8942 3545,8950C3562,8958 3582,8970 3591,8977C3600,8984 3642,9008 3685,9031C3728,9053 3786,9086 3814,9104C3842,9122 3884,9146 3908,9158C3932,9169 3981,9197 4018,9220C4115,9279 4405,9445 4420,9448C4426,9449 4456,9466 4486,9485C4516,9504 4545,9520 4550,9520C4556,9520 4560,9524 4560,9528C4560,9532 4579,9546 4603,9558C4626,9570 4663,9591 4685,9604C4739,9638 4820,9684 4910,9733C4951,9755 4996,9781 5009,9792C5022,9802 5038,9810 5044,9810C5050,9810 5071,9821 5090,9834L5125,9858L5185,9827C5218,9810 5250,9792 5255,9787Z" style="fill:white;fill-rule:nonzero;"/>
                <g transform="matrix(76.343,0,0,-76.343,5163.9,5543.77)">
                    <g transform="matrix(1,0,0,1,-53.22,-61.44)">
                        <clipPath id="_clip2">
                            <rect x="0" y="0" width="106.44" height="122.88"/>
                        </clipPath>
                        <g clip-path="url(#_clip2)">
                            <g>
                                <path d="M55.06,1.07L106.43,30.73L106.43,92.16L53.21,122.89L0,92.15L0,30.73L53.22,0L55.06,1.07ZM76.13,21.74L53.22,8.51L7.39,34.97L7.39,87.91L53.22,114.37L99.05,87.91L99.05,34.97L76.13,21.74Z" style="fill:white;fill-rule:nonzero;"/>
                            </g>
                        </g>
                    </g>
                </g>
                <path d="M5233,8030C5204,8024 5144,8005 5098,7986C4984,7940 4970,7937 4760,7935C4563,7933 4510,7924 4401,7874C4296,7826 4208,7730 4179,7633C4169,7597 4160,7587 4124,7569C4057,7537 4015,7461 4027,7395C4032,7372 4023,7358 3968,7302C3789,7117 3666,6920 3586,6691C3511,6475 3440,5985 3440,5679L3440,5582L3396,5555.99C3286,5492 3220,5344 3220,5160C3220,5067 3239,4987 3283,4884C3302,4841 3323,4787 3330,4765C3367,4646 3442,4553 3533,4509L3592,4482L3630,4368C3736,4053 3884,3775 4053,3579C4267,3329 4750,3076 5070,3045C5268,3026 5592,3138 5892,3327C6137,3482 6295,3665 6449,3970C6523,4115 6594,4289 6632,4410C6654,4485 6655,4486 6707,4509C6793,4547 6873,4647 6910,4765C6917,4787 6940,4846 6961,4895C7011,5014 7024,5089 7017,5203C7006,5373 6943,5503 6847,5555L6813,5573L6806,5744C6794,6030 6753,6351 6699,6570C6653,6754 6555,6959 6435,7121L6379,7198L6376,7306C6371,7480 6345,7529 6214,7616C6110,7685 6100,7695 6100,7726C6100,7768 6065,7824 6024,7846C5967,7878 5893,7890 5760,7890C5661,7890 5640,7893 5640,7905C5640,7936 5571,7989 5505,8009C5427,8033 5305,8042 5233,8030ZM5900,7315C6017,7287 6089,7259 6132,7223C6248,7127 6398,6918 6469,6757C6574,6515 6636,6150 6647,5704L6653,5452L6693,5445.99C6788,5430 6838,5364 6860,5224C6874,5135.99 6857,5045 6805.99,4930.99C6785.99,4888 6770,4845.99 6770,4839C6770,4815.99 6720,4717 6697,4692C6663,4655 6622,4638 6577,4642L6537,4645L6499,4513C6433,4285 6307,4003 6195,3834C6130.99,3738 6002,3598 5920.99,3535.99C5837,3472 5677,3377 5560,3320.99C5205,3152 5003,3160 4621,3355C4359,3489 4192,3630 4060,3826C3935,4014 3810,4292 3745,4525L3712,4645L3664,4642C3584,4637 3522,4691 3485,4798C3476,4824 3459,4868 3448,4895C3392,5031 3377,5085 3377,5160C3377,5341 3452,5450 3576,5450C3597,5450 3597,5453 3603,5718C3609,6001 3626,6169 3675,6415C3731,6694 3823,6892 3997,7101C4056,7173 4189,7300 4205,7300C4209,7300 4229,7285 4251,7266C4371,7164 4780,7131 5140,7194C5220,7208 5384,7244 5505,7274C5742,7333 5797,7339 5900,7315Z" style="fill:white;fill-rule:nonzero;"/>
                <path d="M5872,5879C5742,5864 5627,5825.99 5575,5780C5562,5768 5509,5754 5420,5739C5260.99,5712 5015,5707 4884,5729C4815,5740 4800.99,5745.99 4792,5765.99C4779,5794 4730,5820 4630,5850.99C4567,5870.99 4534,5875 4420,5875L4285,5875L4190,5828C4095,5780.99 4095,5780.99 3900,5760C3775,5747 3700,5734 3690.99,5725C3684,5718 3677,5690 3677,5660C3675.99,5610 3687,5589 3722,5578C3727,5575.99 3753,5465 3780,5330.99C3834,5059 3860.99,4985.99 3930,4927C4023,4848 4148,4810 4320,4810C4454,4810 4544,4830 4645.99,4880C4788,4950 4882,5075 4965,5305.99C5010,5429 5015,5437 5053,5460C5094,5485 5155.99,5485 5197,5460C5235,5437 5240,5429 5285,5306C5368,5075 5462,4950 5604,4880C5705.99,4830 5795.99,4810 5930,4810C6102,4810 6227,4848 6320,4927C6389,4986 6415.99,5059 6470,5331C6497,5465 6523,5576 6528,5578C6564,5590 6575,5610 6573,5660C6573,5689 6565.99,5718 6558,5726C6550,5734 6490,5746 6410,5755C6313,5766 6268,5776 6250,5789C6148,5863 6016,5895 5872,5879ZM4572,5706C4815,5659 4930.99,5549 4899,5392C4885,5324 4812,5157 4765,5086C4677,4954 4525.99,4890 4295,4887C4060.99,4885 3940,4968 3890,5164C3857,5293 3865.99,5524 3905.99,5602C3918,5626 4003,5680 4027,5680C4032,5680 4035,5666 4035,5648C4035,5606 4054,5602 4075.99,5639C4085.99,5655 4114,5680 4139,5694C4183,5718 4193,5720 4342,5720C4436,5720 4527,5714 4572,5706ZM6194,5691C6239,5676 6272,5658 6290,5638C6305.99,5621 6322,5610 6328,5614C6354,5630 6380,5496 6380,5350C6380,5099 6297,4956 6120,4903C6004,4867 5759,4891 5645,4948C5534,5003 5480,5069 5405,5240C5334,5402 5329,5472 5379,5554C5420,5620 5569,5697 5626,5681C5656,5673 5719,5686 5756,5709C5769,5717 5827,5719 5950,5717C6097,5714 6136,5709 6194,5691Z" style="fill:white;fill-rule:nonzero;"/>
                <path d="M4400,5524C4275,5490 4178,5397 4192,5323C4197,5295 4223,5302 4239,5335C4259,5380 4310,5430 4355,5450.99C4412,5477 4424,5475.99 4404,5444C4382,5412 4383,5337 4405,5304C4461,5218 4602,5222 4647,5310C4665,5345 4663,5420.99 4644,5448C4625,5475.99 4629,5475.99 4691,5445C4722,5429 4753,5403 4772,5375C4804,5330 4823,5320 4835,5340.99C4847,5360 4831,5395.99 4795,5433C4706,5525 4543,5562 4400,5524Z" style="fill:white;fill-rule:nonzero;"/>
                <path d="M5735,5527C5708,5519 5667,5504 5645,5493C5589,5464 5518,5385 5522,5357C5527,5319 5557,5325 5584,5369C5600,5393 5631,5422 5662,5440C5728,5477 5746,5479 5724,5445C5704,5414 5704,5335.99 5725,5304C5749,5267 5800,5240 5845,5240C5890,5240 5941,5267 5965,5304C5987,5337 5986,5414 5965,5445.99C5949,5470.99 5949,5472 5972,5465C6037,5444 6091,5398 6120,5338C6149,5275 6187,5315 6159,5380.99C6142,5424 6066,5485.99 6001,5510.99C5932,5537 5805,5545 5735,5527Z" style="fill:white;fill-rule:nonzero;"/>
                <path d="M4753,4575C4741,4543 4759,4485 4790,4458C4824,4427 4869,4422 4943,4441C4982,4452 4990,4451 5035,4426C5097,4393 5140,4393 5210,4426C5261,4450 5268,4451 5317,4439C5382,4424 5437,4433 5468,4463C5497,4493 5509,4560 5487,4578C5464,4598 5440,4582 5440,4546C5440,4528 5435,4509 5428,4502C5413,4487 5363,4487 5307,4502C5268,4512 5258,4511 5206,4487C5133,4453 5105,4453 5040,4487C4992,4512 4985,4513 4944,4502C4853,4477 4810,4490 4810,4540C4810,4583 4767,4609 4753,4575Z" style="fill:white;fill-rule:nonzero;"/>
                <path d="M4795,4346C4757,4333 4679,4302 4622,4276C4479,4211 4439,4202 4406,4223C4392,4233 4380,4249 4380,4260C4380,4282 4405,4310 4426,4310C4434,4310 4440,4315 4440,4320C4440,4326 4425,4330 4407,4330C4382,4330 4365,4321 4339,4294C4310,4264 4305,4252 4305,4210C4305,4091 4424,4040 4632,4069C4750,4086 4929,4127 5037,4161C5103,4182 5135,4188 5147,4182C5183,4163 5392,4110 5532,4084C5712,4051 5805,4053 5872,4093C5927,4125 5944,4161 5941,4234C5939,4274 5881,4330 5841,4330C5824,4330 5810,4326 5810,4320C5810,4315 5816,4310 5823,4310C5841,4310 5870,4277 5870,4257C5870,4248 5859,4233 5845,4224C5810,4201 5773,4210 5614,4281C5540,4314 5454,4347 5423,4355C5320,4382 5228,4371 5159,4324L5122,4299L5085,4324C5009,4376 4909,4383 4795,4346Z" style="fill:white;fill-rule:nonzero;"/>
                <path d="M4810,4052C4810,4045.99 4831,4023 4856,4000.99C4992,3880.99 5234,3885 5368,4009C5403,4042 5410,4064 5383,4055.99C5269,4022 4941,4022 4828,4055.99C4818,4059 4810,4057 4810,4052Z" style="fill:white;fill-rule:nonzero;"/>
            </g>
        </g>
    </g>
</svg>
