<?xml version="1.0" encoding="UTF-8" standalone="no"?>
<!DOCTYPE svg PUBLIC "-//W3C//DTD SVG 1.1//EN" "http://www.w3.org/Graphics/SVG/1.1/DTD/svg11.dtd">
<svg width="100%" height="100%" viewBox="0 0 382 501" version="1.1" xmlns="http://www.w3.org/2000/svg" xmlns:xlink="http://www.w3.org/1999/xlink" xml:space="preserve" xmlns:serif="http://www.serif.com/" style="fill-rule:evenodd;clip-rule:evenodd;stroke-linejoin:round;stroke-miterlimit:2;">
    <g id="ArtBoard1" transform="matrix(0.497989,0,0,0.541401,-73.9853,-0.575497)">
        <rect x="148.568" y="1.063" width="766.788" height="925.139" style="fill:none;"/>
        <g transform="matrix(0.200808,0,0,-0.184706,-495.996,1486.09)">
            <path d="M5233,8030C5204,8024 5144,8005 5098,7986C4984,7940 4970,7937 4760,7935C4563,7933 4510,7924 4401,7874C4296,7826 4208,7730 4179,7633C4169,7597 4160,7587 4124,7569C4057,7537 4015,7461 4027,7395C4032,7372 4023,7358 3968,7302C3789,7117 3666,6920 3586,6691C3511,6475 3440,5985 3440,5679L3440,5582L3396,5555.99C3286,5492 3220,5344 3220,5160C3220,5067 3239,4987 3283,4884C3302,4841 3323,4787 3330,4765C3367,4646 3442,4553 3533,4509L3592,4482L3630,4368C3736,4053 3884,3775 4053,3579C4267,3329 4750,3076 5070,3045C5268,3026 5592,3138 5892,3327C6137,3482 6295,3665 6449,3970C6523,4115 6594,4289 6632,4410C6654,4485 6655,4486 6707,4509C6793,4547 6873,4647 6910,4765C6917,4787 6940,4846 6961,4895C7011,5014 7024,5089 7017,5203C7006,5373 6943,5503 6847,5555L6813,5573L6806,5744C6794,6030 6753,6351 6699,6570C6653,6754 6555,6959 6435,7121L6379,7198L6376,7306C6371,7480 6345,7529 6214,7616C6110,7685 6100,7695 6100,7726C6100,7768 6065,7824 6024,7846C5967,7878 5893,7890 5760,7890C5661,7890 5640,7893 5640,7905C5640,7936 5571,7989 5505,8009C5427,8033 5305,8042 5233,8030ZM5900,7315C6017,7287 6089,7259 6132,7223C6248,7127 6398,6918 6469,6757C6574,6515 6636,6150 6647,5704L6653,5452L6693,5445.99C6788,5430 6838,5364 6860,5224C6874,5135.99 6857,5045 6805.99,4930.99C6785.99,4888 6770,4845.99 6770,4839C6770,4815.99 6720,4717 6697,4692C6663,4655 6622,4638 6577,4642L6537,4645L6499,4513C6433,4285 6307,4003 6195,3834C6130.99,3738 6002,3598 5920.99,3535.99C5837,3472 5677,3377 5560,3320.99C5205,3152 5003,3160 4621,3355C4359,3489 4192,3630 4060,3826C3935,4014 3810,4292 3745,4525L3712,4645L3664,4642C3584,4637 3522,4691 3485,4798C3476,4824 3459,4868 3448,4895C3392,5031 3377,5085 3377,5160C3377,5341 3452,5450 3576,5450C3597,5450 3597,5453 3603,5718C3609,6001 3626,6169 3675,6415C3731,6694 3823,6892 3997,7101C4056,7173 4189,7300 4205,7300C4209,7300 4229,7285 4251,7266C4371,7164 4780,7131 5140,7194C5220,7208 5384,7244 5505,7274C5742,7333 5797,7339 5900,7315Z" style="fill:white;fill-rule:nonzero;"/>
            <path d="M5872,5879C5742,5864 5627,5825.99 5575,5780C5562,5768 5509,5754 5420,5739C5260.99,5712 5015,5707 4884,5729C4815,5740 4800.99,5745.99 4792,5765.99C4779,5794 4730,5820 4630,5850.99C4567,5870.99 4534,5875 4420,5875L4285,5875L4190,5828C4095,5780.99 4095,5780.99 3900,5760C3775,5747 3700,5734 3690.99,5725C3684,5718 3677,5690 3677,5660C3675.99,5610 3687,5589 3722,5578C3727,5575.99 3753,5465 3780,5330.99C3834,5059 3860.99,4985.99 3930,4927C4023,4848 4148,4810 4320,4810C4454,4810 4544,4830 4645.99,4880C4788,4950 4882,5075 4965,5305.99C5010,5429 5015,5437 5053,5460C5094,5485 5155.99,5485 5197,5460C5235,5437 5240,5429 5285,5306C5368,5075 5462,4950 5604,4880C5705.99,4830 5795.99,4810 5930,4810C6102,4810 6227,4848 6320,4927C6389,4986 6415.99,5059 6470,5331C6497,5465 6523,5576 6528,5578C6564,5590 6575,5610 6573,5660C6573,5689 6565.99,5718 6558,5726C6550,5734 6490,5746 6410,5755C6313,5766 6268,5776 6250,5789C6148,5863 6016,5895 5872,5879ZM4572,5706C4815,5659 4930.99,5549 4899,5392C4885,5324 4812,5157 4765,5086C4677,4954 4525.99,4890 4295,4887C4060.99,4885 3940,4968 3890,5164C3857,5293 3865.99,5524 3905.99,5602C3918,5626 4003,5680 4027,5680C4032,5680 4035,5666 4035,5648C4035,5606 4054,5602 4075.99,5639C4085.99,5655 4114,5680 4139,5694C4183,5718 4193,5720 4342,5720C4436,5720 4527,5714 4572,5706ZM6194,5691C6239,5676 6272,5658 6290,5638C6305.99,5621 6322,5610 6328,5614C6354,5630 6380,5496 6380,5350C6380,5099 6297,4956 6120,4903C6004,4867 5759,4891 5645,4948C5534,5003 5480,5069 5405,5240C5334,5402 5329,5472 5379,5554C5420,5620 5569,5697 5626,5681C5656,5673 5719,5686 5756,5709C5769,5717 5827,5719 5950,5717C6097,5714 6136,5709 6194,5691Z" style="fill:white;fill-rule:nonzero;"/>
            <path d="M4400,5524C4275,5490 4178,5397 4192,5323C4197,5295 4223,5302 4239,5335C4259,5380 4310,5430 4355,5450.99C4412,5477 4424,5475.99 4404,5444C4382,5412 4383,5337 4405,5304C4461,5218 4602,5222 4647,5310C4665,5345 4663,5420.99 4644,5448C4625,5475.99 4629,5475.99 4691,5445C4722,5429 4753,5403 4772,5375C4804,5330 4823,5320 4835,5340.99C4847,5360 4831,5395.99 4795,5433C4706,5525 4543,5562 4400,5524Z" style="fill:white;fill-rule:nonzero;"/>
            <path d="M5735,5527C5708,5519 5667,5504 5645,5493C5589,5464 5518,5385 5522,5357C5527,5319 5557,5325 5584,5369C5600,5393 5631,5422 5662,5440C5728,5477 5746,5479 5724,5445C5704,5414 5704,5335.99 5725,5304C5749,5267 5800,5240 5845,5240C5890,5240 5941,5267 5965,5304C5987,5337 5986,5414 5965,5445.99C5949,5470.99 5949,5472 5972,5465C6037,5444 6091,5398 6120,5338C6149,5275 6187,5315 6159,5380.99C6142,5424 6066,5485.99 6001,5510.99C5932,5537 5805,5545 5735,5527Z" style="fill:white;fill-rule:nonzero;"/>
            <path d="M4753,4575C4741,4543 4759,4485 4790,4458C4824,4427 4869,4422 4943,4441C4982,4452 4990,4451 5035,4426C5097,4393 5140,4393 5210,4426C5261,4450 5268,4451 5317,4439C5382,4424 5437,4433 5468,4463C5497,4493 5509,4560 5487,4578C5464,4598 5440,4582 5440,4546C5440,4528 5435,4509 5428,4502C5413,4487 5363,4487 5307,4502C5268,4512 5258,4511 5206,4487C5133,4453 5105,4453 5040,4487C4992,4512 4985,4513 4944,4502C4853,4477 4810,4490 4810,4540C4810,4583 4767,4609 4753,4575Z" style="fill:white;fill-rule:nonzero;"/>
            <path d="M4795,4346C4757,4333 4679,4302 4622,4276C4479,4211 4439,4202 4406,4223C4392,4233 4380,4249 4380,4260C4380,4282 4405,4310 4426,4310C4434,4310 4440,4315 4440,4320C4440,4326 4425,4330 4407,4330C4382,4330 4365,4321 4339,4294C4310,4264 4305,4252 4305,4210C4305,4091 4424,4040 4632,4069C4750,4086 4929,4127 5037,4161C5103,4182 5135,4188 5147,4182C5183,4163 5392,4110 5532,4084C5712,4051 5805,4053 5872,4093C5927,4125 5944,4161 5941,4234C5939,4274 5881,4330 5841,4330C5824,4330 5810,4326 5810,4320C5810,4315 5816,4310 5823,4310C5841,4310 5870,4277 5870,4257C5870,4248 5859,4233 5845,4224C5810,4201 5773,4210 5614,4281C5540,4314 5454,4347 5423,4355C5320,4382 5228,4371 5159,4324L5122,4299L5085,4324C5009,4376 4909,4383 4795,4346Z" style="fill:white;fill-rule:nonzero;"/>
            <path d="M4810,4052C4810,4045.99 4831,4023 4856,4000.99C4992,3880.99 5234,3885 5368,4009C5403,4042 5410,4064 5383,4055.99C5269,4022 4941,4022 4828,4055.99C4818,4059 4810,4057 4810,4052Z" style="fill:white;fill-rule:nonzero;"/>
        </g>
    </g>
</svg>
