<?xml version="1.0" standalone="no"?>
<!DOCTYPE svg PUBLIC "-//W3C//DTD SVG 20010904//EN"
 "http://www.w3.org/TR/2001/REC-SVG-20010904/DTD/svg10.dtd">
<svg version="1.0" xmlns="http://www.w3.org/2000/svg"
 width="942.000000pt" height="942.000000pt" viewBox="0 0 942.000000 942.000000"
 preserveAspectRatio="xMidYMid meet">
<metadata>
Created by potrace 1.14, written by Peter Selinger 2001-2017
</metadata>
<g transform="translate(0.000000,942.000000) scale(0.100000,-0.100000)"
fill="#000000" stroke="none">
<path d="M4545 9290 c-203 -119 -738 -427 -1190 -687 -137 -79 -257 -147 -265
-153 -36 -22 -286 -165 -295 -169 -5 -2 -21 -12 -35 -21 -24 -17 -49 -32 -150
-88 -25 -14 -125 -72 -223 -129 -98 -56 -180 -103 -182 -103 -2 0 -24 -13 -48
-30 -25 -16 -47 -30 -50 -30 -4 0 -67 -36 -143 -80 -75 -44 -138 -80 -139 -80
-2 0 -40 -22 -85 -50 -45 -27 -83 -50 -85 -50 -2 0 -52 -29 -112 -63 -59 -35
-274 -160 -478 -277 -203 -117 -372 -215 -375 -217 -3 -3 -5 -1059 -5 -2348
-1 -2304 -1 -2343 18 -2355 11 -6 34 -20 51 -29 17 -10 119 -69 226 -131 107
-62 209 -121 227 -131 17 -10 50 -29 72 -43 22 -15 43 -26 45 -26 2 0 80 -44
173 -98 187 -110 559 -324 613 -355 19 -10 103 -58 185 -106 83 -49 299 -174
480 -278 182 -105 472 -273 645 -373 173 -100 335 -194 360 -208 25 -14 140
-80 255 -147 521 -302 689 -398 704 -402 9 -2 54 18 101 45 431 249 681 393
710 410 19 11 91 52 160 92 69 40 140 81 158 91 18 11 93 54 165 96 73 42 146
83 162 93 92 52 428 246 475 274 30 19 75 45 100 58 25 14 86 49 135 78 50 29
104 60 121 70 56 32 628 363 714 413 47 27 105 61 130 75 25 14 142 81 260
150 118 69 236 137 262 151 26 14 89 50 140 80 51 30 109 63 128 74 19 10 50
28 68 39 l32 20 -2 2376 c-3 2369 -3 2376 -23 2387 -11 5 -56 31 -100 56 -44
26 -96 56 -115 67 -19 10 -75 43 -125 72 -49 29 -110 64 -135 78 -25 14 -124
71 -220 127 -171 100 -515 298 -555 319 -11 7 -63 37 -115 67 -103 61 -533
310 -590 342 -19 10 -165 95 -325 187 -460 266 -856 495 -905 522 -36 20 -657
379 -775 448 l-30 17 -200 -117z m390 -642 c61 -35 119 -69 130 -76 18 -10 89
-51 360 -207 55 -32 114 -66 132 -76 18 -10 191 -110 385 -222 194 -113 369
-214 388 -224 19 -11 134 -78 255 -148 121 -70 240 -139 265 -153 25 -14 97
-55 160 -92 63 -36 239 -138 390 -225 151 -87 313 -181 360 -208 85 -50 116
-68 188 -108 170 -97 269 -155 283 -166 14 -12 16 -201 15 -2028 -1 -1328 -4
-2017 -11 -2024 -5 -5 -80 -50 -165 -99 -85 -49 -261 -150 -390 -224 -129 -75
-318 -184 -420 -243 -102 -59 -203 -117 -225 -130 -91 -52 -239 -137 -377
-217 -80 -47 -152 -88 -160 -92 -7 -3 -26 -14 -43 -25 -31 -18 -411 -238 -477
-275 -29 -17 -291 -168 -429 -249 -135 -78 -423 -244 -459 -265 -25 -14 -110
-63 -189 -109 -79 -45 -148 -83 -153 -83 -5 0 -116 61 -246 137 -130 75 -250
144 -267 153 -16 10 -102 59 -190 110 -88 51 -173 100 -190 110 -16 9 -133 77
-260 150 -126 73 -243 141 -260 150 -16 9 -133 77 -260 150 -435 252 -870 503
-905 522 -19 11 -64 37 -100 58 -36 21 -84 49 -106 62 -23 13 -193 110 -378
217 l-336 194 0 2022 0 2022 323 187 c177 102 333 193 347 201 14 8 90 52 170
98 80 46 165 95 190 109 25 14 203 117 395 228 193 111 366 211 385 222 19 11
49 27 65 37 34 21 264 154 540 313 105 60 197 114 205 119 8 5 69 40 135 77
66 38 197 113 290 167 94 54 181 105 195 112 14 7 77 44 140 82 l115 68 40
-23 c22 -12 90 -51 150 -86z"/>
<path d="M4812 7199 c-24 -5 -86 -24 -138 -44 -108 -40 -130 -43 -349 -50 -88
-2 -171 -7 -185 -10 -62 -12 -85 -18 -100 -25 -8 -4 -36 -18 -61 -30 -95 -45
-179 -135 -210 -224 -10 -27 -30 -50 -65 -76 -65 -49 -85 -81 -93 -150 -7 -53
-12 -62 -100 -162 -163 -185 -278 -379 -345 -579 -24 -71 -77 -318 -91 -419
-3 -25 -8 -52 -10 -60 -2 -8 -7 -46 -10 -85 -4 -38 -8 -83 -10 -100 -11 -84
-17 -183 -19 -299 l-3 -129 -44 -30 c-118 -80 -178 -224 -173 -412 2 -89 18
-154 76 -300 82 -208 131 -277 236 -333 55 -29 61 -36 77 -84 74 -233 192
-490 303 -658 123 -190 236 -302 431 -433 170 -114 486 -252 621 -272 25 -3
61 -10 80 -14 191 -41 612 110 925 333 38 27 75 54 81 60 6 6 33 32 61 57 198
184 364 473 508 884 35 98 34 97 99 134 29 16 70 49 90 73 32 37 91 145 116
213 4 11 17 47 30 80 12 33 25 69 30 80 47 114 38 326 -20 449 -38 81 -47 91
-149 163 -3 2 -5 25 -7 51 -4 109 -16 314 -19 339 -2 16 -6 57 -9 93 -4 36 -8
76 -10 90 -3 14 -7 48 -11 75 -8 72 -34 224 -45 265 -5 19 -11 48 -14 63 -22
129 -134 372 -243 531 -42 61 -77 121 -79 135 -1 15 -5 67 -8 117 -10 154 -29
188 -163 284 -91 66 -105 81 -110 115 -6 37 -38 86 -70 106 -57 36 -113 45
-301 53 -45 2 -84 5 -85 7 -1 2 -7 13 -13 24 -17 31 -83 72 -145 89 -66 19
-195 26 -257 15z m698 -719 c148 -39 218 -81 306 -187 190 -229 303 -472 349
-753 3 -19 8 -42 10 -50 5 -19 35 -246 40 -308 5 -67 16 -307 20 -437 2 -60 3
-113 4 -116 1 -4 18 -10 39 -14 46 -8 95 -38 116 -69 8 -14 24 -56 35 -95 31
-112 23 -179 -45 -362 -83 -224 -119 -270 -213 -273 -51 -1 -52 -1 -62 -41
-18 -69 -85 -267 -118 -349 -56 -139 -165 -356 -183 -364 -5 -2 -8 -8 -8 -14
0 -28 -96 -146 -215 -263 -101 -99 -218 -177 -413 -275 -374 -188 -592 -180
-998 34 -319 169 -492 347 -655 676 -75 151 -128 281 -168 410 -63 204 -53
185 -97 186 -65 1 -69 3 -111 39 -36 31 -49 55 -102 189 -68 172 -84 237 -78
323 12 150 73 240 172 251 16 2 33 9 37 15 4 7 8 46 9 87 1 119 16 436 24 505
2 22 7 65 10 95 7 66 38 241 60 336 51 224 152 432 293 601 53 63 181 191 205
205 10 5 32 -3 67 -26 105 -69 268 -101 515 -100 104 1 283 12 295 19 3 1 27
6 54 9 27 4 151 30 275 58 124 28 253 56 286 63 71 14 182 12 245 -5z"/>
<path d="M5500 5053 c-106 -7 -222 -36 -303 -78 -73 -37 -113 -49 -237 -71
-19 -3 -125 -8 -235 -10 -231 -3 -315 7 -348 43 -61 67 -184 103 -367 108
l-135 4 -75 -36 c-114 -54 -136 -60 -286 -77 -77 -9 -162 -22 -191 -28 -45
-10 -52 -14 -57 -41 -11 -53 -6 -77 18 -102 25 -25 38 -68 81 -270 54 -260 85
-338 157 -399 83 -72 199 -107 362 -110 128 -3 185 5 281 41 186 69 277 178
390 466 21 54 50 109 63 122 49 49 159 39 196 -18 9 -13 32 -64 52 -113 52
-131 82 -192 124 -254 107 -157 270 -239 487 -244 177 -5 286 20 390 89 89 59
120 124 169 348 51 243 74 321 96 338 28 22 31 115 5 134 -16 11 -100 28 -207
41 -25 3 -76 20 -115 39 -131 65 -210 84 -315 78z m-1295 -186 c133 -38 212
-86 252 -154 48 -83 33 -177 -62 -369 -103 -207 -254 -286 -535 -280 -144 4
-209 23 -278 81 -83 71 -130 222 -126 402 3 175 21 229 91 273 54 35 67 34 71
-3 4 -35 17 -34 48 2 13 16 43 39 67 51 40 20 51 21 232 16 119 -3 209 -10
240 -19z m1561 -1 c28 -9 68 -28 90 -44 21 -15 47 -31 56 -35 28 -10 48 -111
50 -251 3 -234 -62 -370 -211 -442 -49 -24 -70 -28 -171 -30 -246 -6 -411 54
-502 184 -65 93 -148 296 -148 360 0 89 53 161 156 212 51 25 78 32 122 32 32
-1 79 7 107 18 43 16 73 18 225 15 122 -2 190 -8 226 -19z"/>
<path d="M4003 4700 c-47 -10 -113 -41 -159 -76 -37 -27 -74 -97 -67 -124 8
-32 26 -23 60 30 22 33 51 60 85 80 72 41 79 39 61 -12 -21 -60 -9 -110 33
-148 19 -16 44 -31 54 -31 11 -1 30 -2 43 -3 88 -7 150 84 122 181 l-12 41 31
-11 c17 -6 57 -37 90 -69 38 -38 63 -55 69 -49 16 16 -2 60 -41 99 -84 84
-227 120 -369 92z"/>
<path d="M5300 4691 c-97 -30 -190 -109 -190 -160 0 -34 30 -24 72 24 36 41
102 85 126 85 6 0 3 -19 -5 -41 -42 -124 73 -226 191 -168 61 29 87 108 59
177 -15 37 -14 38 35 13 49 -25 84 -58 111 -103 29 -48 51 -50 51 -5 0 63 -97
149 -200 178 -70 19 -187 19 -250 0z"/>
<path d="M4337 3739 c-9 -32 15 -90 45 -112 29 -22 83 -27 151 -14 28 5 49 2
80 -12 66 -30 98 -31 176 -5 38 13 76 22 83 19 31 -11 96 -13 131 -4 61 16
102 106 62 139 -20 17 -33 5 -41 -36 -3 -19 -14 -38 -23 -43 -17 -9 -26 -8
-106 3 -37 5 -60 3 -90 -10 -79 -33 -103 -34 -174 -8 -48 18 -76 23 -101 19
-19 -4 -45 -9 -57 -11 -36 -7 -72 13 -79 43 -13 53 -47 72 -57 32z"/>
<path d="M4395 3521 c-50 -15 -206 -77 -280 -111 -69 -31 -124 -28 -144 8 -12
22 11 62 35 62 8 0 14 5 14 10 0 22 -57 9 -90 -20 -27 -24 -34 -39 -38 -79 -6
-63 21 -105 87 -134 93 -41 286 -20 596 64 136 36 142 37 228 9 34 -10 73 -21
87 -24 14 -2 43 -9 65 -14 43 -12 171 -38 232 -48 21 -4 75 -7 120 -7 132 -1
208 46 216 135 4 37 -11 74 -40 100 -24 22 -83 35 -83 19 0 -6 4 -11 9 -11 16
0 41 -31 41 -50 0 -24 -36 -44 -74 -42 -25 2 -124 40 -241 92 -91 40 -150 54
-230 53 -95 0 -96 -1 -157 -35 -45 -25 -48 -26 -70 -9 -66 49 -184 63 -283 32z"/>
<path d="M4437 3182 c130 -125 377 -125 512 -2 39 36 41 55 4 45 -56 -14 -80
-16 -223 -19 -137 -2 -227 3 -310 19 l-35 6 52 -49z"/>
</g>
</svg>
