<svg xmlns="http://www.w3.org/2000/svg" fill-rule="evenodd" stroke-linecap="round" stroke-linejoin="round" stroke-miterlimit="10" clip-rule="evenodd" viewBox="0 0 6041 4100" xml:space="preserve"><g transform="matrix(.9715 0 0 .9706 -223.214 -388.243)"><path fill="none" d="M229.763 400.001H6447.983V4623.4710000000005H229.763z"/><clipPath id="a"><path d="M229.763 400.001H6447.983V4623.4710000000005H229.763z"/></clipPath><g clip-path="url(#a)"><path fill="#27AAE1" fill-rule="nonzero" d="M1516.64 1091.92H83.36a8.358 8.358 0 0 1-8.36-8.36V178.35h1450v905.21c0 4.62-3.74 8.36-8.36 8.36z" transform="matrix(4.28891 0 0 4.29285 -92.65 -64.063)"/><g transform="matrix(4.28891 0 0 4.29285 -92.65 -64.063) translate(799.852 637.851) translate(-840 -458.5)"><path d="M0 0H1680V917H0z"/><path d="M0 0H1680V917H0z"/><path fill="#10AC84" fill-rule="nonzero" d="M852 719.864c-4.999 0-8.782 2.934-12 6-3.066-3.254-7-6-12-6-7.041 0-12 6.054-12 12.655 0 3.542 1.45 6.093 3.039 8.489l18.65 22.359c2.094 2.215 2.488 2.215 4.582 0l18.691-22.359c1.868-2.396 3.038-4.947 3.038-8.489 0-6.601-4.959-12.655-12-12.655zm6 20.523-18 21.477-18-21.566c-2.153-2.992-3-5.011-3-7.779 0-5.157 3.683-9.799 9-9.843 4.374-.036 9.331 4.431 12 7.799 2.598-3.251 7.626-7.799 12-7.799 5.177 0 9 4.686 9 9.843 0 2.768-.671 4.937-3 7.868z" transform="translate(0 -568.446)"/><path fill="#10AC84" fill-rule="nonzero" d="M839.988 753.564c1.564 0 2.498-.686 3.102-2.333l5.407-14.577a2.93 2.93 0 0 0 .193-1.07c0-1.126-.851-1.867-2.059-1.867-1.071 0-1.675.467-2.004 1.537l-4.53 13.89h-.082l-4.529-13.835c-.33-1.098-.989-1.592-2.059-1.592-1.29 0-2.141.768-2.141 1.894 0 .412.055.769.192 1.153l5.408 14.467c.576 1.647 1.51 2.333 3.102 2.333z" transform="translate(0 -570.281)"/><path fill="#576574" fill-rule="nonzero" d="M1087 576.5v52H517a8 8 0 0 1-8-8v-36a8 8 0 0 1 8-8h570z" transform="translate(0 -288)"/><path fill="#fff" d="M863 592.5H864V612.5H863z" transform="translate(0 -288)"/><path fill="#0ABDE3" fill-rule="nonzero" d="M1171 584.486v36.028c0 4.411-3.58 7.986-8 7.986h-76v-52h76c4.42 0 8 3.575 8 7.986z" transform="translate(0 -288)"/><path fill-opacity="0" fill-rule="nonzero" d="M.756-.7.453 0h-.16l-.302-.7h.175l.213.5.216-.5h.161z" transform="matrix(35 0 0 35 689.57 257)"/><path fill-opacity="0" fill-rule="nonzero" d="m.599-.267-.003.042H.189c.007.033.025.06.052.079a.173.173 0 0 0 .102.029.182.182 0 0 0 .135-.052l.083.09C.51-.021.436.008.339.008a.347.347 0 0 1-.161-.036.251.251 0 0 1-.108-.098.275.275 0 0 1-.038-.143c0-.053.013-.1.038-.143a.259.259 0 0 1 .103-.099.306.306 0 0 1 .146-.035c.053 0 .1.011.143.034a.255.255 0 0 1 .101.097.298.298 0 0 1 .036.148zM.32-.428a.135.135 0 0 0-.089.03.125.125 0 0 0-.044.082h.265a.13.13 0 0 0-.044-.082.132.132 0 0 0-.088-.03z" transform="matrix(35 0 0 35 713.755 257)"/><path fill-opacity="0" fill-rule="nonzero" d="M.627-.538v.448C.627.009.601.082.55.13.499.178.424.202.325.202A.55.55 0 0 1 .177.183.33.33 0 0 1 .061.128L.123.016a.268.268 0 0 0 .086.045c.035.01.069.016.104.016.054 0 .094-.012.12-.036C.458.016.471-.021.471-.07v-.023a.217.217 0 0 1-.17.067.281.281 0 0 1-.135-.033.245.245 0 0 1-.134-.227c0-.051.012-.097.036-.136a.255.255 0 0 1 .098-.092.292.292 0 0 1 .135-.032c.078 0 .137.026.178.077v-.069h.148zm-.295.384a.144.144 0 0 0 .102-.037.124.124 0 0 0 .039-.095.127.127 0 0 0-.039-.096.148.148 0 0 0-.102-.036.148.148 0 0 0-.102.036.125.125 0 0 0-.04.096c0 .039.013.071.04.095a.144.144 0 0 0 .102.037z" transform="matrix(35 0 0 35 735.84 257)"/><path fill-opacity="0" fill-rule="nonzero" d="M.289-.546c.083 0 .147.02.192.059.045.04.067.1.067.18V0H.402v-.067C.373-.017.318.008.238.008a.252.252 0 0 1-.107-.021.156.156 0 0 1-.07-.058.153.153 0 0 1-.024-.084.14.14 0 0 1 .057-.118c.037-.029.095-.043.174-.043h.124a.1.1 0 0 0-.031-.079C.34-.413.309-.422.268-.422a.263.263 0 0 0-.155.05L.057-.481a.323.323 0 0 1 .106-.048.485.485 0 0 1 .126-.017zm-.012.449a.13.13 0 0 0 .071-.019.099.099 0 0 0 .044-.054v-.055H.285c-.064 0-.096.021-.096.063 0 .02.008.036.024.047a.101.101 0 0 0 .064.018z" transform="matrix(35 0 0 35 760.34 257)"/><path fill-opacity="0" fill-rule="nonzero" d="M.399-.546c.067 0 .121.02.162.06.041.04.061.099.061.178V0H.466v-.284c0-.043-.009-.075-.028-.096C.419-.401.392-.411.357-.411a.125.125 0 0 0-.094.036C.24-.35.228-.314.228-.266V0H.072v-.538h.149v.063a.212.212 0 0 1 .077-.053.275.275 0 0 1 .101-.018z" transform="matrix(35 0 0 35 781.935 257)"/><path fill-opacity="0" fill-rule="nonzero" d="M.418.012a.4.4 0 0 1-.193-.047.345.345 0 0 1-.186-.315.35.35 0 0 1 .186-.316.4.4 0 0 1 .194-.046c.061 0 .116.011.165.032a.33.33 0 0 1 .123.092l-.104.096a.222.222 0 0 0-.176-.082.234.234 0 0 0-.116.028.203.203 0 0 0-.079.08.235.235 0 0 0-.029.116c0 .043.01.082.029.116a.194.194 0 0 0 .079.079c.034.02.073.029.116.029.07 0 .129-.028.176-.083l.104.096a.318.318 0 0 1-.124.093.415.415 0 0 1-.165.032z" transform="matrix(35 0 0 35 806.12 257)"/><path fill-opacity="0" fill-rule="nonzero" d="M.399-.546c.067 0 .121.02.162.06.041.04.061.099.061.178V0H.466v-.284c0-.043-.009-.075-.028-.096C.419-.401.392-.411.357-.411a.125.125 0 0 0-.094.036C.24-.35.228-.314.228-.266V0H.072v-.742h.156v.26A.21.21 0 0 1 .303-.53a.269.269 0 0 1 .096-.016z" transform="matrix(35 0 0 35 831.775 257)"/><path fill-opacity="0" fill-rule="nonzero" d="m.599-.267-.003.042H.189c.007.033.025.06.052.079a.173.173 0 0 0 .102.029.182.182 0 0 0 .135-.052l.083.09C.51-.021.436.008.339.008a.347.347 0 0 1-.161-.036.251.251 0 0 1-.108-.098.275.275 0 0 1-.038-.143c0-.053.013-.1.038-.143a.259.259 0 0 1 .103-.099.306.306 0 0 1 .146-.035c.053 0 .1.011.143.034a.255.255 0 0 1 .101.097.298.298 0 0 1 .036.148zM.32-.428a.135.135 0 0 0-.089.03.125.125 0 0 0-.044.082h.265a.13.13 0 0 0-.044-.082.132.132 0 0 0-.088-.03z" transform="matrix(35 0 0 35 856.17 257)"/><path fill-opacity="0" fill-rule="nonzero" d="M.332.008a.324.324 0 0 1-.154-.036.267.267 0 0 1-.146-.241.267.267 0 0 1 .146-.242.336.336 0 0 1 .154-.035.31.31 0 0 1 .149.035.212.212 0 0 1 .092.102l-.121.065C.424-.393.384-.418.331-.418a.136.136 0 0 0-.101.04.146.146 0 0 0-.04.109c0 .046.013.082.04.109.027.027.06.04.101.04a.131.131 0 0 0 .121-.074l.121.066a.212.212 0 0 1-.092.1.299.299 0 0 1-.149.036z" transform="matrix(35 0 0 35 878.255 257)"/><path fill-opacity="0" fill-rule="nonzero" d="m.303-.211-.075.074V0H.072v-.742h.156v.42l.228-.216h.186L.418-.31.662 0H.473l-.17-.211z" transform="matrix(35 0 0 35 898.8 257)"/><path fill-opacity="0" fill-rule="nonzero" d="M.131.008A.094.094 0 0 1 .062-.02a.094.094 0 0 1-.028-.07c0-.029.009-.052.028-.07a.1.1 0 0 1 .069-.026A.1.1 0 0 1 .2-.16a.091.091 0 0 1 .028.07.094.094 0 0 1-.028.07.094.094 0 0 1-.069.028z" transform="matrix(35 0 0 35 922.25 257)"/><path fill-opacity="0" fill-rule="nonzero" d="M.761-.546c.067 0 .121.02.161.059.039.04.059.1.059.179V0H.825v-.284c0-.043-.009-.075-.026-.096C.781-.401.756-.411.723-.411a.112.112 0 0 0-.087.035C.615-.352.604-.317.604-.27V0H.448v-.284c0-.085-.034-.127-.102-.127a.111.111 0 0 0-.086.035C.239-.352.228-.317.228-.27V0H.072v-.538h.149v.062a.195.195 0 0 1 .074-.052.244.244 0 0 1 .095-.018c.038 0 .072.007.103.022a.181.181 0 0 1 .074.066.217.217 0 0 1 .084-.065.264.264 0 0 1 .11-.023z" transform="matrix(35 0 0 35 931.42 257)"/><path fill-opacity="0" fill-rule="nonzero" d="m.599-.267-.003.042H.189c.007.033.025.06.052.079a.173.173 0 0 0 .102.029.182.182 0 0 0 .135-.052l.083.09C.51-.021.436.008.339.008a.347.347 0 0 1-.161-.036.251.251 0 0 1-.108-.098.275.275 0 0 1-.038-.143c0-.053.013-.1.038-.143a.259.259 0 0 1 .103-.099.306.306 0 0 1 .146-.035c.053 0 .1.011.143.034a.255.255 0 0 1 .101.097.298.298 0 0 1 .036.148zM.32-.428a.135.135 0 0 0-.089.03.125.125 0 0 0-.044.082h.265a.13.13 0 0 0-.044-.082.132.132 0 0 0-.088-.03z" transform="matrix(35 0 0 35 968.345 257)"/><path fill="#fff" fill-rule="nonzero" d="M.647-.248h-.14V-.41h-.07v.162H.133L.491-.7h-.08L.04-.236v.052h.395V0h.072v-.184h.14v-.064z" transform="matrix(17 0 0 17 733.845 320.5)"/><path fill="#fff" fill-rule="nonzero" d="m.145-.064.238-.234C.477-.39.498-.45.498-.517c0-.117-.09-.189-.232-.189a.315.315 0 0 0-.248.1l.051.044A.238.238 0 0 1 .26-.64c.107 0 .164.05.164.131 0 .048-.015.095-.094.173l-.291.285V0H.53v-.064H.145z" transform="matrix(17 0 0 17 745.014 320.5)"/><path fill="#fff" fill-rule="nonzero" d="M.342-.419c-.097 0-.179.043-.214.12a.624.624 0 0 1-.003-.057c0-.19.097-.287.248-.287.052 0 .1.009.136.033l.029-.058a.321.321 0 0 0-.166-.038c-.19 0-.32.124-.32.362 0 .221.101.35.287.35.136 0 .239-.084.239-.215 0-.128-.097-.21-.236-.21zm-.006.364c-.121 0-.185-.073-.185-.15 0-.087.073-.153.18-.153.108 0 .176.059.176.151 0 .093-.07.152-.171.152z" transform="matrix(17 0 0 17 754.602 320.5)"/><path fill="#fff" fill-rule="nonzero" d="M.331.006c.162 0 .28-.133.28-.356 0-.223-.118-.356-.28-.356-.162 0-.279.133-.279.356 0 .223.117.356.279.356zm0-.066C.209-.06.125-.163.125-.35s.084-.29.206-.29c.122 0 .206.103.206.29s-.084.29-.206.29z" transform="matrix(17 0 0 17 764.955 320.5)"/><path fill="#fff" fill-rule="nonzero" d="M.009-.7v.064h.165V0h.072v-.7H.009z" transform="matrix(17 0 0 17 776.175 320.5)"/><path fill="#fff" fill-rule="nonzero" d="m.145-.064.238-.234C.477-.39.498-.45.498-.517c0-.117-.09-.189-.232-.189a.315.315 0 0 0-.248.1l.051.044A.238.238 0 0 1 .26-.64c.107 0 .164.05.164.131 0 .048-.015.095-.094.173l-.291.285V0H.53v-.064H.145z" transform="matrix(17 0 0 17 782.312 320.5)"/><path fill="#fff" fill-rule="nonzero" d="m.145-.064.238-.234C.477-.39.498-.45.498-.517c0-.117-.09-.189-.232-.189a.315.315 0 0 0-.248.1l.051.044A.238.238 0 0 1 .26-.64c.107 0 .164.05.164.131 0 .048-.015.095-.094.173l-.291.285V0H.53v-.064H.145z" transform="matrix(17 0 0 17 791.968 320.5)"/><path fill="#fff" fill-rule="nonzero" d="m.29-.4.198-.249V-.7h-.45v.064h.358l-.194.243v.053h.05c.13 0 .189.055.189.139 0 .087-.064.141-.18.141a.307.307 0 0 1-.217-.081l-.035.057c.054.055.151.09.252.09.169 0 .254-.09.254-.207C.515-.313.44-.392.29-.4z" transform="matrix(17 0 0 17 801.624 320.5)"/><path fill="#fff" fill-rule="nonzero" d="M.27-.706c-.136 0-.239.084-.239.215 0 .128.097.21.236.21.097 0 .179-.043.214-.12a.624.624 0 0 1 .003.057c0 .19-.097.287-.248.287A.245.245 0 0 1 .1-.09l-.029.058a.321.321 0 0 0 .166.038c.19 0 .32-.124.32-.362 0-.221-.101-.35-.287-.35zm.008.364C.17-.342.102-.401.102-.493c0-.093.07-.152.171-.152.121 0 .185.073.185.15 0 .087-.073.153-.18.153z" transform="matrix(17 0 0 17 811.212 320.5)"/><path fill="#fff" fill-rule="nonzero" d="M.331.006c.162 0 .28-.133.28-.356 0-.223-.118-.356-.28-.356-.162 0-.279.133-.279.356 0 .223.117.356.279.356zm0-.066C.209-.06.125-.163.125-.35s.084-.29.206-.29c.122 0 .206.103.206.29s-.084.29-.206.29z" transform="matrix(17 0 0 17 821.565 320.5)"/><path fill="#fff" fill-rule="nonzero" d="m.29-.4.198-.249V-.7h-.45v.064h.358l-.194.243v.053h.05c.13 0 .189.055.189.139 0 .087-.064.141-.18.141a.307.307 0 0 1-.217-.081l-.035.057c.054.055.151.09.252.09.169 0 .254-.09.254-.207C.515-.313.44-.392.29-.4z" transform="matrix(17 0 0 17 832.649 320.5)"/><path fill="#fff" fill-rule="nonzero" d="M.27-.706c-.136 0-.239.084-.239.215 0 .128.097.21.236.21.097 0 .179-.043.214-.12a.624.624 0 0 1 .003.057c0 .19-.097.287-.248.287A.245.245 0 0 1 .1-.09l-.029.058a.321.321 0 0 0 .166.038c.19 0 .32-.124.32-.362 0-.221-.101-.35-.287-.35zm.008.364C.17-.342.102-.401.102-.493c0-.093.07-.152.171-.152.121 0 .185.073.185.15 0 .087-.073.153-.18.153z" transform="matrix(17 0 0 17 842.237 320.5)"/><path fill="#fff" fill-rule="nonzero" d="M.032-.7v.195h.071v-.131h.36L.175 0h.078l.293-.649V-.7H.032z" transform="matrix(17 0 0 17 852.454 320.5)"/><path fill="#10AC84" fill-rule="nonzero" d="M.049-.7h.133l-.011.284H.059L.049-.7zm.206 0h.133l-.011.284H.265L.255-.7z" transform="matrix(24 0 0 24 682.578 410.5)"/><path fill="#10AC84" fill-rule="nonzero" d="M.313.012a.534.534 0 0 1-.285-.081l.055-.122a.412.412 0 0 0 .231.073c.046 0 .08-.007.102-.021.022-.013.033-.031.033-.054A.052.052 0 0 0 .43-.235a.157.157 0 0 0-.05-.026.925.925 0 0 0-.083-.022 1.16 1.16 0 0 1-.131-.038.212.212 0 0 1-.087-.061.161.161 0 0 1-.037-.112c0-.041.011-.078.033-.111a.217.217 0 0 1 .1-.078.522.522 0 0 1 .293-.013c.043.011.08.026.112.046l-.05.123a.387.387 0 0 0-.194-.055c-.045 0-.079.007-.1.022-.022.015-.033.034-.033.058s.013.042.038.053a.54.54 0 0 0 .114.035c.053.013.097.025.131.038a.23.23 0 0 1 .088.06.161.161 0 0 1 .036.111.19.19 0 0 1-.033.109.227.227 0 0 1-.101.079.417.417 0 0 1-.163.029z" transform="matrix(24 0 0 24 693.066 410.5)"/><path fill="#10AC84" fill-rule="nonzero" d="M.761-.546c.067 0 .121.02.161.059.039.04.059.1.059.179V0H.825v-.284c0-.043-.009-.075-.026-.096C.781-.401.756-.411.723-.411a.112.112 0 0 0-.087.035C.615-.352.604-.317.604-.27V0H.448v-.284c0-.085-.034-.127-.102-.127a.111.111 0 0 0-.086.035C.239-.352.228-.317.228-.27V0H.072v-.538h.149v.062a.195.195 0 0 1 .074-.052.244.244 0 0 1 .095-.018c.038 0 .072.007.103.022a.181.181 0 0 1 .074.066.217.217 0 0 1 .084-.065.264.264 0 0 1 .11-.023z" transform="matrix(24 0 0 24 708.378 410.5)"/><path fill="#10AC84" fill-rule="nonzero" d="M.328.008a.316.316 0 0 1-.152-.036.257.257 0 0 1-.106-.098.275.275 0 0 1-.038-.143.267.267 0 0 1 .144-.242.327.327 0 0 1 .152-.035c.057 0 .107.012.152.035a.264.264 0 0 1 .143.242.275.275 0 0 1-.038.143.255.255 0 0 1-.105.098.316.316 0 0 1-.152.036zm0-.128c.04 0 .073-.013.099-.041a.153.153 0 0 0 .038-.108.155.155 0 0 0-.038-.109.131.131 0 0 0-.099-.04.131.131 0 0 0-.099.04.152.152 0 0 0-.039.109.15.15 0 0 0 .039.108.128.128 0 0 0 .099.041z" transform="matrix(24 0 0 24 733.698 410.5)"/><path fill="#10AC84" fill-rule="nonzero" d="M.328.008a.316.316 0 0 1-.152-.036.257.257 0 0 1-.106-.098.275.275 0 0 1-.038-.143.267.267 0 0 1 .144-.242.327.327 0 0 1 .152-.035c.057 0 .107.012.152.035a.264.264 0 0 1 .143.242.275.275 0 0 1-.038.143.255.255 0 0 1-.105.098.316.316 0 0 1-.152.036zm0-.128c.04 0 .073-.013.099-.041a.153.153 0 0 0 .038-.108.155.155 0 0 0-.038-.109.131.131 0 0 0-.099-.04.131.131 0 0 0-.099.04.152.152 0 0 0-.039.109.15.15 0 0 0 .039.108.128.128 0 0 0 .099.041z" transform="matrix(24 0 0 24 749.418 410.5)"/><path fill="#10AC84" fill-rule="nonzero" d="M.419-.026a.152.152 0 0 1-.056.025.276.276 0 0 1-.071.009C.228.008.179-.008.144-.041.109-.074.091-.122.091-.185v-.221H.008v-.12h.083v-.131h.156v.131h.134v.12H.247v.219c0 .023.006.04.018.052.011.013.028.019.049.019a.1.1 0 0 0 .063-.02l.042.11z" transform="matrix(24 0 0 24 765.138 410.5)"/><path fill="#10AC84" fill-rule="nonzero" d="M.399-.546c.067 0 .121.02.162.06.041.04.061.099.061.178V0H.466v-.284c0-.043-.009-.075-.028-.096C.419-.401.392-.411.357-.411a.125.125 0 0 0-.094.036C.24-.35.228-.314.228-.266V0H.072v-.742h.156v.26A.21.21 0 0 1 .303-.53a.269.269 0 0 1 .096-.016z" transform="matrix(24 0 0 24 775.578 410.5)"/><path fill="#10AC84" fill-rule="nonzero" d="M.072-.538h.156V0H.072v-.538zM.15-.613a.097.097 0 0 1-.07-.025A.081.081 0 0 1 .053-.7c0-.025.009-.045.027-.062a.097.097 0 0 1 .07-.025.1.1 0 0 1 .07.024.077.077 0 0 1 .027.06.084.084 0 0 1-.027.064.098.098 0 0 1-.07.026z" transform="matrix(24 0 0 24 792.162 410.5)"/><path fill="#10AC84" fill-rule="nonzero" d="m.599-.267-.003.042H.189c.007.033.025.06.052.079a.173.173 0 0 0 .102.029.182.182 0 0 0 .135-.052l.083.09C.51-.021.436.008.339.008a.347.347 0 0 1-.161-.036.251.251 0 0 1-.108-.098.275.275 0 0 1-.038-.143c0-.053.013-.1.038-.143a.259.259 0 0 1 .103-.099.306.306 0 0 1 .146-.035c.053 0 .1.011.143.034a.255.255 0 0 1 .101.097.298.298 0 0 1 .036.148zM.32-.428a.135.135 0 0 0-.089.03.125.125 0 0 0-.044.082h.265a.13.13 0 0 0-.044-.082.132.132 0 0 0-.088-.03z" transform="matrix(24 0 0 24 799.386 410.5)"/><path fill="#10AC84" fill-rule="nonzero" d="M.386-.7c.062 0 .116.01.162.031.045.021.08.05.105.088a.24.24 0 0 1 .037.135.233.233 0 0 1-.142.222.387.387 0 0 1-.162.031H.245V0H.083v-.7h.303zm-.009.375c.049 0 .086-.01.111-.032a.11.11 0 0 0 .038-.089.113.113 0 0 0-.038-.091C.463-.558.426-.568.377-.568H.245v.243h.132z" transform="matrix(24 0 0 24 821.322 410.5)"/><path fill="#10AC84" fill-rule="nonzero" d="M.072-.538h.156V0H.072v-.538zM.15-.613a.097.097 0 0 1-.07-.025A.081.081 0 0 1 .053-.7c0-.025.009-.045.027-.062a.097.097 0 0 1 .07-.025.1.1 0 0 1 .07.024.077.077 0 0 1 .027.06.084.084 0 0 1-.027.064.098.098 0 0 1-.07.026z" transform="matrix(24 0 0 24 838.65 410.5)"/><path fill="#10AC84" fill-rule="nonzero" d="M.399-.546c.067 0 .121.02.162.06.041.04.061.099.061.178V0H.466v-.284c0-.043-.009-.075-.028-.096C.419-.401.392-.411.357-.411a.125.125 0 0 0-.094.036C.24-.35.228-.314.228-.266V0H.072v-.538h.149v.063a.212.212 0 0 1 .077-.053.275.275 0 0 1 .101-.018z" transform="matrix(24 0 0 24 845.874 410.5)"/><path fill="#10AC84" fill-rule="nonzero" d="m.303-.211-.075.074V0H.072v-.742h.156v.42l.228-.216h.186L.418-.31.662 0H.473l-.17-.211z" transform="matrix(24 0 0 24 862.458 410.5)"/><path fill="#10AC84" fill-rule="nonzero" d="M.049-.7h.133l-.011.284H.059L.049-.7zm.206 0h.133l-.011.284H.265L.255-.7z" transform="matrix(24 0 0 24 878.298 410.5)"/><path fill="#10AC84" fill-rule="nonzero" d="M.072-.538h.156V0H.072v-.538zM.15-.613a.097.097 0 0 1-.07-.025A.081.081 0 0 1 .053-.7c0-.025.009-.045.027-.062a.097.097 0 0 1 .07-.025.1.1 0 0 1 .07.024.077.077 0 0 1 .027.06.084.084 0 0 1-.027.064.098.098 0 0 1-.07.026z" transform="matrix(24 0 0 24 895.578 410.5)"/><path fill="#10AC84" fill-rule="nonzero" d="M.253.008A.48.48 0 0 1 .02-.05l.052-.112a.317.317 0 0 0 .087.037c.034.01.067.015.1.015.066 0 .099-.016.099-.049 0-.015-.009-.026-.027-.033a.405.405 0 0 0-.083-.017.812.812 0 0 1-.109-.023.169.169 0 0 1-.074-.046.13.13 0 0 1-.032-.094c0-.034.01-.064.03-.091a.189.189 0 0 1 .086-.061.356.356 0 0 1 .133-.022c.038 0 .076.004.114.012.037.009.068.02.093.035l-.052.111a.306.306 0 0 0-.155-.04.164.164 0 0 0-.075.014C.19-.405.182-.393.182-.378c0 .017.009.028.027.035a.457.457 0 0 0 .086.019c.044.007.08.015.108.023a.171.171 0 0 1 .073.046.128.128 0 0 1 .031.092c0 .033-.01.063-.03.089a.188.188 0 0 1-.087.06.379.379 0 0 1-.137.022z" transform="matrix(24 0 0 24 902.802 410.5)"/><path fill="#10AC84" fill-rule="nonzero" d="M.756-.7.453 0h-.16l-.302-.7h.175l.213.5.216-.5h.161z" transform="matrix(24 0 0 24 922.338 410.5)"/><g><path fill="#10AC84" fill-rule="nonzero" d="m.599-.267-.003.042H.189c.007.033.025.06.052.079a.173.173 0 0 0 .102.029.182.182 0 0 0 .135-.052l.083.09C.51-.021.436.008.339.008a.347.347 0 0 1-.161-.036.251.251 0 0 1-.108-.098.275.275 0 0 1-.038-.143c0-.053.013-.1.038-.143a.259.259 0 0 1 .103-.099.306.306 0 0 1 .146-.035c.053 0 .1.011.143.034a.255.255 0 0 1 .101.097.298.298 0 0 1 .036.148zM.32-.428a.135.135 0 0 0-.089.03.125.125 0 0 0-.044.082h.265a.13.13 0 0 0-.044-.082.132.132 0 0 0-.088-.03z" transform="matrix(24 0 0 24 938.922 410.5)"/></g><g><path fill="#10AC84" fill-rule="nonzero" d="M.627-.538v.448C.627.009.601.082.55.13.499.178.424.202.325.202A.55.55 0 0 1 .177.183.33.33 0 0 1 .061.128L.123.016a.268.268 0 0 0 .086.045c.035.01.069.016.104.016.054 0 .094-.012.12-.036C.458.016.471-.021.471-.07v-.023a.217.217 0 0 1-.17.067.281.281 0 0 1-.135-.033.245.245 0 0 1-.134-.227c0-.051.012-.097.036-.136a.255.255 0 0 1 .098-.092.292.292 0 0 1 .135-.032c.078 0 .137.026.178.077v-.069h.148zm-.295.384a.144.144 0 0 0 .102-.037.124.124 0 0 0 .039-.095.127.127 0 0 0-.039-.096.148.148 0 0 0-.102-.036.148.148 0 0 0-.102.036.125.125 0 0 0-.04.096c0 .039.013.071.04.095a.144.144 0 0 0 .102.037z" transform="matrix(24 0 0 24 954.066 410.5)"/></g><g><path fill="#10AC84" fill-rule="nonzero" d="M.289-.546c.083 0 .147.02.192.059.045.04.067.1.067.18V0H.402v-.067C.373-.017.318.008.238.008a.252.252 0 0 1-.107-.021.156.156 0 0 1-.07-.058.153.153 0 0 1-.024-.084.14.14 0 0 1 .057-.118c.037-.029.095-.043.174-.043h.124a.1.1 0 0 0-.031-.079C.34-.413.309-.422.268-.422a.263.263 0 0 0-.155.05L.057-.481a.323.323 0 0 1 .106-.048.485.485 0 0 1 .126-.017zm-.012.449a.13.13 0 0 0 .071-.019.099.099 0 0 0 .044-.054v-.055H.285c-.064 0-.096.021-.096.063 0 .02.008.036.024.047a.101.101 0 0 0 .064.018z" transform="matrix(24 0 0 24 970.866 410.5)"/></g><g><path fill="#10AC84" fill-rule="nonzero" d="M.399-.546c.067 0 .121.02.162.06.041.04.061.099.061.178V0H.466v-.284c0-.043-.009-.075-.028-.096C.419-.401.392-.411.357-.411a.125.125 0 0 0-.094.036C.24-.35.228-.314.228-.266V0H.072v-.538h.149v.063a.212.212 0 0 1 .077-.053.275.275 0 0 1 .101-.018z" transform="matrix(24 0 0 24 985.674 410.5)"/></g><g><path fill="#10AC84" fill-rule="nonzero" d="M.052-.7h.186l-.031.457H.083L.052-.7zm.093.708a.093.093 0 0 1-.068-.027.083.083 0 0 1-.028-.064c0-.025.009-.046.027-.064a.096.096 0 0 1 .069-.025c.028 0 .051.008.069.025a.087.087 0 0 1 .027.064.085.085 0 0 1-.027.064.097.097 0 0 1-.069.027z" transform="matrix(24 0 0 24 1002.26 410.5)"/></g><g><path fill="#fff" fill-rule="nonzero" d="m.78-.7-.301.519L.175-.7H.114V0h.071v-.557l.275.468h.035L.77-.56V0h.071v-.7H.78z" transform="matrix(13 0 0 13 726.066 497.623)"/><path fill="#fff" fill-rule="nonzero" d="M.283-.53a.334.334 0 0 0-.214.071l.032.053a.268.268 0 0 1 .175-.062c.098 0 .149.049.149.139v.032H.258c-.151 0-.203.068-.203.149 0 .091.073.153.192.153.087 0 .149-.033.181-.087V0h.068v-.326C.496-.462.419-.53.283-.53zm-.025.479C.174-.051.125-.089.125-.15c0-.054.033-.094.135-.094h.165v.086c-.028.069-.087.107-.167.107z" transform="matrix(13 0 0 13 739.06 497.623)"/><path fill="#fff" fill-rule="nonzero" d="M.508-.742v.316a.23.23 0 0 0-.2-.104.254.254 0 0 0-.262.267c0 .159.112.268.262.268.087 0 .16-.038.203-.109V0h.068v-.742H.508zm-.194.684C.202-.058.118-.14.118-.263c0-.123.084-.205.196-.205.111 0 .195.082.195.205 0 .123-.084.205-.195.205z" transform="matrix(13 0 0 13 747.336 497.623)"/><path fill="#fff" fill-rule="nonzero" d="M.558-.263C.558-.421.451-.53.303-.53c-.148 0-.257.111-.257.267 0 .156.112.268.276.268.083 0 .156-.03.203-.086l-.04-.046a.207.207 0 0 1-.161.069c-.115 0-.199-.073-.207-.183h.44l.001-.022zM.303-.469c.103 0 .178.072.187.175H.117a.183.183 0 0 1 .186-.175z" transform="matrix(13 0 0 13 756.729 497.623)"/><path fill="#fff" fill-rule="nonzero" d="m.806-.526-.167.447-.168-.447H.41l-.169.447-.165-.447H.008L.206 0h.067l.166-.431L.605 0h.067l.199-.526H.806z" transform="matrix(13 0 0 13 767.337 497.623)"/><path fill="#fff" fill-rule="nonzero" d="M.135-.641a.05.05 0 1 0 0-.101.051.051 0 0 0-.052.05c0 .028.023.051.052.051zM.099 0H.17v-.526H.099V0z" transform="matrix(13 0 0 13 779.343 497.623)"/><path fill="#fff" fill-rule="nonzero" d="M.351-.083a.117.117 0 0 1-.078.027C.214-.056.182-.09.182-.152v-.314h.16v-.06h-.16v-.115H.111v.115H.017v.06h.094v.318c0 .097.055.153.154.153a.17.17 0 0 0 .111-.037L.351-.083z" transform="matrix(13 0 0 13 783.42 497.623)"/><path fill="#fff" fill-rule="nonzero" d="M.367-.53c-.089 0-.158.035-.197.096v-.308H.099V0H.17v-.276c0-.12.071-.19.184-.19.1 0 .158.057.158.168V0h.071v-.305C.583-.456.495-.53.367-.53z" transform="matrix(13 0 0 13 789.277 497.623)"/><path fill="#fff" fill-rule="nonzero" d="M.37-.53a.23.23 0 0 0-.2.104v-.316H.099V0h.068v-.104A.228.228 0 0 0 .37.005c.15 0 .262-.109.262-.268A.254.254 0 0 0 .37-.53zm-.005.472C.253-.058.169-.14.169-.263c0-.123.084-.205.196-.205.111 0 .196.082.196.205 0 .123-.085.205-.196.205z" transform="matrix(13 0 0 13 820.225 497.623)"/><path fill="#fff" fill-rule="nonzero" d="m.471-.526-.198.447-.198-.447H.001l.235.525L.213.05C.183.116.151.138.104.138a.131.131 0 0 1-.096-.04l-.033.053a.18.18 0 0 0 .128.048C.178.199.234.166.278.063l.263-.589h-.07z" transform="matrix(13 0 0 13 829.423 497.623)"/><path fill="#10AC84" fill-rule="nonzero" d="M.386-.7c.062 0 .116.01.162.031.045.021.08.05.105.088a.24.24 0 0 1 .037.135.233.233 0 0 1-.142.222.387.387 0 0 1-.162.031H.245V0H.083v-.7h.303zm-.009.375c.049 0 .086-.01.111-.032a.11.11 0 0 0 .038-.089.113.113 0 0 0-.038-.091C.463-.558.426-.568.377-.568H.245v.243h.132z" transform="matrix(13 0 0 13 842.44 497.623)"/><path fill="#10AC84" fill-rule="nonzero" d="M.399-.546c.067 0 .121.02.162.06.041.04.061.099.061.178V0H.466v-.284c0-.043-.009-.075-.028-.096C.419-.401.392-.411.357-.411a.125.125 0 0 0-.094.036C.24-.35.228-.314.228-.266V0H.072v-.742h.156v.26A.21.21 0 0 1 .303-.53a.269.269 0 0 1 .096-.016z" transform="matrix(13 0 0 13 852.536 497.623)"/><path fill="#10AC84" fill-rule="nonzero" d="M.072-.538h.156V0H.072v-.538zM.15-.613a.097.097 0 0 1-.07-.025A.081.081 0 0 1 .053-.7c0-.025.009-.045.027-.062a.097.097 0 0 1 .07-.025.1.1 0 0 1 .07.024.077.077 0 0 1 .027.06.084.084 0 0 1-.027.064.098.098 0 0 1-.07.026z" transform="matrix(13 0 0 13 862.098 497.623)"/><path fill="#10AC84" d="M.072-.742H.22799999999999998V0H.072z" transform="matrix(13 0 0 13 866.591 497.623)"/><path fill="#10AC84" fill-rule="nonzero" d="M.072-.538h.156V0H.072v-.538zM.15-.613a.097.097 0 0 1-.07-.025A.081.081 0 0 1 .053-.7c0-.025.009-.045.027-.062a.097.097 0 0 1 .07-.025.1.1 0 0 1 .07.024.077.077 0 0 1 .027.06.084.084 0 0 1-.027.064.098.098 0 0 1-.07.026z" transform="matrix(13 0 0 13 871.083 497.623)"/><path fill="#10AC84" fill-rule="nonzero" d="M.39-.546c.05 0 .096.011.137.034a.249.249 0 0 1 .096.097.3.3 0 0 1 .035.146.294.294 0 0 1-.035.145.236.236 0 0 1-.096.097.266.266 0 0 1-.137.035.208.208 0 0 1-.162-.065v.251H.072v-.732h.149v.062c.039-.047.095-.07.169-.07zM.363-.12c.04 0 .073-.013.099-.041A.153.153 0 0 0 .5-.269a.155.155 0 0 0-.038-.109.131.131 0 0 0-.099-.04.127.127 0 0 0-.098.04.152.152 0 0 0-.039.109.15.15 0 0 0 .039.108.125.125 0 0 0 .098.041z" transform="matrix(13 0 0 13 875.576 497.623)"/><path fill="#10AC84" fill-rule="nonzero" d="M.597-.364c.04.013.071.034.094.063.023.03.034.067.034.11a.162.162 0 0 1-.071.141.369.369 0 0 1-.209.05H.083v-.7h.342c.085 0 .151.016.197.049a.157.157 0 0 1 .068.133.174.174 0 0 1-.024.091.175.175 0 0 1-.069.063zM.244-.578v.165h.161c.04 0 .07-.007.091-.021a.07.07 0 0 0 .031-.062.07.07 0 0 0-.031-.062.173.173 0 0 0-.091-.02H.244zm.189.456A.181.181 0 0 0 .53-.143c.021-.014.032-.036.032-.065 0-.058-.043-.087-.129-.087H.244v.173h.189z" transform="matrix(13 0 0 13 891.291 497.623)"/><path fill="#10AC84" fill-rule="nonzero" d="M.221-.467a.173.173 0 0 1 .076-.059.283.283 0 0 1 .109-.02v.144L.371-.404c-.045 0-.08.012-.105.037-.025.026-.038.063-.038.113V0H.072v-.538h.149v.071z" transform="matrix(13 0 0 13 901.815 497.623)"/><path fill="#10AC84" fill-rule="nonzero" d="m.599-.267-.003.042H.189c.007.033.025.06.052.079a.173.173 0 0 0 .102.029.182.182 0 0 0 .135-.052l.083.09C.51-.021.436.008.339.008a.347.347 0 0 1-.161-.036.251.251 0 0 1-.108-.098.275.275 0 0 1-.038-.143c0-.053.013-.1.038-.143a.259.259 0 0 1 .103-.099.306.306 0 0 1 .146-.035c.053 0 .1.011.143.034a.255.255 0 0 1 .101.097.298.298 0 0 1 .036.148zM.32-.428a.135.135 0 0 0-.089.03.125.125 0 0 0-.044.082h.265a.13.13 0 0 0-.044-.082.132.132 0 0 0-.088-.03z" transform="matrix(13 0 0 13 907.881 497.623)"/><path fill="#10AC84" fill-rule="nonzero" d="M.761-.546c.067 0 .121.02.161.059.039.04.059.1.059.179V0H.825v-.284c0-.043-.009-.075-.026-.096C.781-.401.756-.411.723-.411a.112.112 0 0 0-.087.035C.615-.352.604-.317.604-.27V0H.448v-.284c0-.085-.034-.127-.102-.127a.111.111 0 0 0-.086.035C.239-.352.228-.317.228-.27V0H.072v-.538h.149v.062a.195.195 0 0 1 .074-.052.244.244 0 0 1 .095-.018c.038 0 .072.007.103.022a.181.181 0 0 1 .074.066.217.217 0 0 1 .084-.065.264.264 0 0 1 .11-.023z" transform="matrix(13 0 0 13 916.663 497.623)"/><path fill="#10AC84" fill-rule="nonzero" d="M.39-.546c.05 0 .096.011.137.034a.249.249 0 0 1 .096.097.3.3 0 0 1 .035.146.294.294 0 0 1-.035.145.236.236 0 0 1-.096.097.266.266 0 0 1-.137.035c-.074 0-.13-.023-.169-.07V0H.072v-.742h.156v.261A.208.208 0 0 1 .39-.546zM.363-.12c.04 0 .073-.013.099-.041A.153.153 0 0 0 .5-.269a.155.155 0 0 0-.038-.109.131.131 0 0 0-.099-.04.127.127 0 0 0-.098.04.152.152 0 0 0-.039.109.15.15 0 0 0 .039.108.125.125 0 0 0 .098.041z" transform="matrix(13 0 0 13 930.88 497.623)"/><path fill="#10AC84" fill-rule="nonzero" d="m.599-.267-.003.042H.189c.007.033.025.06.052.079a.173.173 0 0 0 .102.029.182.182 0 0 0 .135-.052l.083.09C.51-.021.436.008.339.008a.347.347 0 0 1-.161-.036.251.251 0 0 1-.108-.098.275.275 0 0 1-.038-.143c0-.053.013-.1.038-.143a.259.259 0 0 1 .103-.099.306.306 0 0 1 .146-.035c.053 0 .1.011.143.034a.255.255 0 0 1 .101.097.298.298 0 0 1 .036.148zM.32-.428a.135.135 0 0 0-.089.03.125.125 0 0 0-.044.082h.265a.13.13 0 0 0-.044-.082.132.132 0 0 0-.088-.03z" transform="matrix(13 0 0 13 940.429 497.623)"/><path fill="#10AC84" fill-rule="nonzero" d="M.332.008a.324.324 0 0 1-.154-.036.267.267 0 0 1-.146-.241.267.267 0 0 1 .146-.242.336.336 0 0 1 .154-.035.31.31 0 0 1 .149.035.212.212 0 0 1 .092.102l-.121.065C.424-.393.384-.418.331-.418a.136.136 0 0 0-.101.04.146.146 0 0 0-.04.109c0 .046.013.082.04.109.027.027.06.04.101.04a.131.131 0 0 0 .121-.074l.121.066a.212.212 0 0 1-.092.1.299.299 0 0 1-.149.036z" transform="matrix(13 0 0 13 949.212 497.623)"/><path fill="#10AC84" fill-rule="nonzero" d="m.303-.211-.075.074V0H.072v-.742h.156v.42l.228-.216h.186L.418-.31.662 0H.473l-.17-.211z" transform="matrix(13 0 0 13 957.422 497.623)"/><path fill="#10AC84" fill-rule="nonzero" d="M.386-.7c.062 0 .116.01.162.031.045.021.08.05.105.088a.24.24 0 0 1 .037.135.233.233 0 0 1-.142.222.387.387 0 0 1-.162.031H.245V0H.083v-.7h.303zm-.009.375c.049 0 .086-.01.111-.032a.11.11 0 0 0 .038-.089.113.113 0 0 0-.038-.091C.463-.558.426-.568.377-.568H.245v.243h.132z" transform="matrix(13 0 0 13 735.752 521.623)"/><path fill="#10AC84" fill-rule="nonzero" d="M.221-.467a.173.173 0 0 1 .076-.059.283.283 0 0 1 .109-.02v.144L.371-.404c-.045 0-.08.012-.105.037-.025.026-.038.063-.038.113V0H.072v-.538h.149v.071z" transform="matrix(13 0 0 13 745.138 521.623)"/><path fill="#10AC84" fill-rule="nonzero" d="M.072-.538h.156V0H.072v-.538zM.15-.613a.097.097 0 0 1-.07-.025A.081.081 0 0 1 .053-.7c0-.025.009-.045.027-.062a.097.097 0 0 1 .07-.025.1.1 0 0 1 .07.024.077.077 0 0 1 .027.06.084.084 0 0 1-.027.064.098.098 0 0 1-.07.026z" transform="matrix(13 0 0 13 750.689 521.623)"/><path fill="#10AC84" fill-rule="nonzero" d="M.606-.538.379 0H.218l-.226-.538h.161l.149.366.154-.366h.15z" transform="matrix(13 0 0 13 754.602 521.623)"/><path fill="#10AC84" fill-rule="nonzero" d="M.289-.546c.083 0 .147.02.192.059.045.04.067.1.067.18V0H.402v-.067C.373-.017.318.008.238.008a.252.252 0 0 1-.107-.021.156.156 0 0 1-.07-.058.153.153 0 0 1-.024-.084.14.14 0 0 1 .057-.118c.037-.029.095-.043.174-.043h.124a.1.1 0 0 0-.031-.079C.34-.413.309-.422.268-.422a.263.263 0 0 0-.155.05L.057-.481a.323.323 0 0 1 .106-.048.485.485 0 0 1 .126-.017zm-.012.449a.13.13 0 0 0 .071-.019.099.099 0 0 0 .044-.054v-.055H.285c-.064 0-.096.021-.096.063 0 .02.008.036.024.047a.101.101 0 0 0 .064.018z" transform="matrix(13 0 0 13 762.142 521.623)"/><path fill="#10AC84" fill-rule="nonzero" d="M.332.008a.324.324 0 0 1-.154-.036.267.267 0 0 1-.146-.241.267.267 0 0 1 .146-.242.336.336 0 0 1 .154-.035.31.31 0 0 1 .149.035.212.212 0 0 1 .092.102l-.121.065C.424-.393.384-.418.331-.418a.136.136 0 0 0-.101.04.146.146 0 0 0-.04.109c0 .046.013.082.04.109.027.027.06.04.101.04a.131.131 0 0 0 .121-.074l.121.066a.212.212 0 0 1-.092.1.299.299 0 0 1-.149.036z" transform="matrix(13 0 0 13 770.241 521.623)"/><path fill="#10AC84" fill-rule="nonzero" d="M.606-.538.363.033a.284.284 0 0 1-.091.131.262.262 0 0 1-.215.025A.194.194 0 0 1-.01.153L.047.042a.127.127 0 0 0 .042.025.125.125 0 0 0 .046.009.084.084 0 0 0 .052-.015.147.147 0 0 0 .036-.052L.225.004l-.233-.542h.161l.151.365.152-.365h.15z" transform="matrix(13 0 0 13 777.82 521.623)"/><path fill="#10AC84" fill-rule="nonzero" d="M.386-.7c.062 0 .116.01.162.031.045.021.08.05.105.088a.24.24 0 0 1 .037.135.233.233 0 0 1-.142.222.387.387 0 0 1-.162.031H.245V0H.083v-.7h.303zm-.009.375c.049 0 .086-.01.111-.032a.11.11 0 0 0 .038-.089.113.113 0 0 0-.038-.091C.463-.558.426-.568.377-.568H.245v.243h.132z" transform="matrix(13 0 0 13 789.273 521.623)"/><path fill="#10AC84" fill-rule="nonzero" d="M.328.008a.316.316 0 0 1-.152-.036.257.257 0 0 1-.106-.098.275.275 0 0 1-.038-.143.267.267 0 0 1 .144-.242.327.327 0 0 1 .152-.035c.057 0 .107.012.152.035a.264.264 0 0 1 .143.242.275.275 0 0 1-.038.143.255.255 0 0 1-.105.098.316.316 0 0 1-.152.036zm0-.128c.04 0 .073-.013.099-.041a.153.153 0 0 0 .038-.108.155.155 0 0 0-.038-.109.131.131 0 0 0-.099-.04.131.131 0 0 0-.099.04.152.152 0 0 0-.039.109.15.15 0 0 0 .039.108.128.128 0 0 0 .099.041z" transform="matrix(13 0 0 13 798.646 521.623)"/><path fill="#10AC84" d="M.072-.742H.22799999999999998V0H.072z" transform="matrix(13 0 0 13 807.161 521.623)"/><path fill="#10AC84" fill-rule="nonzero" d="M.072-.538h.156V0H.072v-.538zM.15-.613a.097.097 0 0 1-.07-.025A.081.081 0 0 1 .053-.7c0-.025.009-.045.027-.062a.097.097 0 0 1 .07-.025.1.1 0 0 1 .07.024.077.077 0 0 1 .027.06.084.084 0 0 1-.027.064.098.098 0 0 1-.07.026z" transform="matrix(13 0 0 13 811.074 521.623)"/><path fill="#10AC84" fill-rule="nonzero" d="M.332.008a.324.324 0 0 1-.154-.036.267.267 0 0 1-.146-.241.267.267 0 0 1 .146-.242.336.336 0 0 1 .154-.035.31.31 0 0 1 .149.035.212.212 0 0 1 .092.102l-.121.065C.424-.393.384-.418.331-.418a.136.136 0 0 0-.101.04.146.146 0 0 0-.04.109c0 .046.013.082.04.109.027.027.06.04.101.04a.131.131 0 0 0 .121-.074l.121.066a.212.212 0 0 1-.092.1.299.299 0 0 1-.149.036z" transform="matrix(13 0 0 13 814.987 521.623)"/><path fill="#10AC84" fill-rule="nonzero" d="M.606-.538.363.033a.284.284 0 0 1-.091.131.262.262 0 0 1-.215.025A.194.194 0 0 1-.01.153L.047.042a.127.127 0 0 0 .042.025.125.125 0 0 0 .046.009.084.084 0 0 0 .052-.015.147.147 0 0 0 .036-.052L.225.004l-.233-.542h.161l.151.365.152-.365h.15z" transform="matrix(13 0 0 13 822.566 521.623)"/><path fill="#fff" fill-rule="nonzero" d="M-.025.1H.04l.33-.942H.305L-.025.1z" transform="matrix(13 0 0 13 833.746 521.623)"/><path fill="#10AC84" d="M.083-.7H.245V0H.083z" transform="matrix(13 0 0 13 841.507 521.623)"/><path fill="#10AC84" fill-rule="nonzero" d="M.761-.546c.067 0 .121.02.161.059.039.04.059.1.059.179V0H.825v-.284c0-.043-.009-.075-.026-.096C.781-.401.756-.411.723-.411a.112.112 0 0 0-.087.035C.615-.352.604-.317.604-.27V0H.448v-.284c0-.085-.034-.127-.102-.127a.111.111 0 0 0-.086.035C.239-.352.228-.317.228-.27V0H.072v-.538h.149v.062a.195.195 0 0 1 .074-.052.244.244 0 0 1 .095-.018c.038 0 .072.007.103.022a.181.181 0 0 1 .074.066.217.217 0 0 1 .084-.065.264.264 0 0 1 .11-.023z" transform="matrix(13 0 0 13 845.771 521.623)"/><path fill="#10AC84" fill-rule="nonzero" d="M.39-.546c.05 0 .096.011.137.034a.249.249 0 0 1 .096.097.3.3 0 0 1 .035.146.294.294 0 0 1-.035.145.236.236 0 0 1-.096.097.266.266 0 0 1-.137.035.208.208 0 0 1-.162-.065v.251H.072v-.732h.149v.062c.039-.047.095-.07.169-.07zM.363-.12c.04 0 .073-.013.099-.041A.153.153 0 0 0 .5-.269a.155.155 0 0 0-.038-.109.131.131 0 0 0-.099-.04.127.127 0 0 0-.098.04.152.152 0 0 0-.039.109.15.15 0 0 0 .039.108.125.125 0 0 0 .098.041z" transform="matrix(13 0 0 13 859.408 521.623)"/><path fill="#10AC84" fill-rule="nonzero" d="M.221-.467a.173.173 0 0 1 .076-.059.283.283 0 0 1 .109-.02v.144L.371-.404c-.045 0-.08.012-.105.037-.025.026-.038.063-.038.113V0H.072v-.538h.149v.071z" transform="matrix(13 0 0 13 868.378 521.623)"/><path fill="#10AC84" fill-rule="nonzero" d="M.072-.538h.156V0H.072v-.538zM.15-.613a.097.097 0 0 1-.07-.025A.081.081 0 0 1 .053-.7c0-.025.009-.045.027-.062a.097.097 0 0 1 .07-.025.1.1 0 0 1 .07.024.077.077 0 0 1 .027.06.084.084 0 0 1-.027.064.098.098 0 0 1-.07.026z" transform="matrix(13 0 0 13 873.929 521.623)"/><path fill="#10AC84" fill-rule="nonzero" d="M.399-.546c.067 0 .121.02.162.06.041.04.061.099.061.178V0H.466v-.284c0-.043-.009-.075-.028-.096C.419-.401.392-.411.357-.411a.125.125 0 0 0-.094.036C.24-.35.228-.314.228-.266V0H.072v-.538h.149v.063a.212.212 0 0 1 .077-.053.275.275 0 0 1 .101-.018z" transform="matrix(13 0 0 13 877.842 521.623)"/><path fill="#10AC84" fill-rule="nonzero" d="M.419-.026a.152.152 0 0 1-.056.025.276.276 0 0 1-.071.009C.228.008.179-.008.144-.041.109-.074.091-.122.091-.185v-.221H.008v-.12h.083v-.131h.156v.131h.134v.12H.247v.219c0 .023.006.04.018.052.011.013.028.019.049.019a.1.1 0 0 0 .063-.02l.042.11z" transform="matrix(13 0 0 13 886.825 521.623)"/><path fill="#fff" fill-rule="nonzero" d="M-.025.1H.04l.33-.942H.305L-.025.1z" transform="matrix(13 0 0 13 895.886 521.623)"/><path fill="#10AC84" fill-rule="nonzero" d="M.313.012a.534.534 0 0 1-.285-.081l.055-.122a.412.412 0 0 0 .231.073c.046 0 .08-.007.102-.021.022-.013.033-.031.033-.054A.052.052 0 0 0 .43-.235a.157.157 0 0 0-.05-.026.925.925 0 0 0-.083-.022 1.16 1.16 0 0 1-.131-.038.212.212 0 0 1-.087-.061.161.161 0 0 1-.037-.112c0-.041.011-.078.033-.111a.217.217 0 0 1 .1-.078.522.522 0 0 1 .293-.013c.043.011.08.026.112.046l-.05.123a.387.387 0 0 0-.194-.055c-.045 0-.079.007-.1.022-.022.015-.033.034-.033.058s.013.042.038.053a.54.54 0 0 0 .114.035c.053.013.097.025.131.038a.23.23 0 0 1 .088.06.161.161 0 0 1 .036.111.19.19 0 0 1-.033.109.227.227 0 0 1-.101.079.417.417 0 0 1-.163.029z" transform="matrix(13 0 0 13 903.647 521.623)"/><path fill="#10AC84" fill-rule="nonzero" d="M.39-.546c.05 0 .096.011.137.034a.249.249 0 0 1 .096.097.3.3 0 0 1 .035.146.294.294 0 0 1-.035.145.236.236 0 0 1-.096.097.266.266 0 0 1-.137.035.208.208 0 0 1-.162-.065v.251H.072v-.732h.149v.062c.039-.047.095-.07.169-.07zM.363-.12c.04 0 .073-.013.099-.041A.153.153 0 0 0 .5-.269a.155.155 0 0 0-.038-.109.131.131 0 0 0-.099-.04.127.127 0 0 0-.098.04.152.152 0 0 0-.039.109.15.15 0 0 0 .039.108.125.125 0 0 0 .098.041z" transform="matrix(13 0 0 13 911.941 521.623)"/><path fill="#10AC84" fill-rule="nonzero" d="M.328.008a.316.316 0 0 1-.152-.036.257.257 0 0 1-.106-.098.275.275 0 0 1-.038-.143.267.267 0 0 1 .144-.242.327.327 0 0 1 .152-.035c.057 0 .107.012.152.035a.264.264 0 0 1 .143.242.275.275 0 0 1-.038.143.255.255 0 0 1-.105.098.316.316 0 0 1-.152.036zm0-.128c.04 0 .073-.013.099-.041a.153.153 0 0 0 .038-.108.155.155 0 0 0-.038-.109.131.131 0 0 0-.099-.04.131.131 0 0 0-.099.04.152.152 0 0 0-.039.109.15.15 0 0 0 .039.108.128.128 0 0 0 .099.041z" transform="matrix(13 0 0 13 920.911 521.623)"/><path fill="#10AC84" fill-rule="nonzero" d="M.399-.546c.067 0 .121.02.162.06.041.04.061.099.061.178V0H.466v-.284c0-.043-.009-.075-.028-.096C.419-.401.392-.411.357-.411a.125.125 0 0 0-.094.036C.24-.35.228-.314.228-.266V0H.072v-.538h.149v.063a.212.212 0 0 1 .077-.053.275.275 0 0 1 .101-.018z" transform="matrix(13 0 0 13 929.426 521.623)"/><path fill="#10AC84" fill-rule="nonzero" d="M.253.008A.48.48 0 0 1 .02-.05l.052-.112a.317.317 0 0 0 .087.037c.034.01.067.015.1.015.066 0 .099-.016.099-.049 0-.015-.009-.026-.027-.033a.405.405 0 0 0-.083-.017.812.812 0 0 1-.109-.023.169.169 0 0 1-.074-.046.13.13 0 0 1-.032-.094c0-.034.01-.064.03-.091a.189.189 0 0 1 .086-.061.356.356 0 0 1 .133-.022c.038 0 .076.004.114.012.037.009.068.02.093.035l-.052.111a.306.306 0 0 0-.155-.04.164.164 0 0 0-.075.014C.19-.405.182-.393.182-.378c0 .017.009.028.027.035a.457.457 0 0 0 .086.019c.044.007.08.015.108.023a.171.171 0 0 1 .073.046.128.128 0 0 1 .031.092c0 .033-.01.063-.03.089a.188.188 0 0 1-.087.06.379.379 0 0 1-.137.022z" transform="matrix(13 0 0 13 938.409 521.623)"/><path fill="#10AC84" fill-rule="nonzero" d="M.328.008a.316.316 0 0 1-.152-.036.257.257 0 0 1-.106-.098.275.275 0 0 1-.038-.143.267.267 0 0 1 .144-.242.327.327 0 0 1 .152-.035c.057 0 .107.012.152.035a.264.264 0 0 1 .143.242.275.275 0 0 1-.038.143.255.255 0 0 1-.105.098.316.316 0 0 1-.152.036zm0-.128c.04 0 .073-.013.099-.041a.153.153 0 0 0 .038-.108.155.155 0 0 0-.038-.109.131.131 0 0 0-.099-.04.131.131 0 0 0-.099.04.152.152 0 0 0-.039.109.15.15 0 0 0 .039.108.128.128 0 0 0 .099.041z" transform="matrix(13 0 0 13 945.312 521.623)"/><path fill="#10AC84" fill-rule="nonzero" d="M.221-.467a.173.173 0 0 1 .076-.059.283.283 0 0 1 .109-.02v.144L.371-.404c-.045 0-.08.012-.105.037-.025.026-.038.063-.038.113V0H.072v-.538h.149v.071z" transform="matrix(13 0 0 13 953.827 521.623)"/></g><g><path fill="red" fill-rule="nonzero" d="M459 18.075c-63.743 0-111.977 37.409-153 76.5-39.091-41.482-89.256-76.5-153-76.5-89.773 0-153 77.188-153 161.358 0 45.154 18.494 77.686 38.747 108.228l237.781 285.077c26.699 28.248 31.729 28.248 58.427 0l238.316-285.077C597.082 257.119 612 224.587 612 179.433c0-84.169-63.228-161.358-153-161.358zm76.5 261.669L306 553.575 76.5 278.615c-27.444-38.154-38.25-63.896-38.25-99.182 0-65.752 46.952-124.944 114.75-125.499 55.769-.459 118.977 56.495 153 99.431 33.125-41.444 97.231-99.431 153-99.431 66 0 114.75 59.747 114.75 125.499 0 35.286-8.549 62.94-38.25 100.311z" transform="matrix(.0193 0 0 .0193 802.701 487.149)"/></g><g><path fill="#fff" fill-rule="nonzero" d="M799.188 341.784c1.751 0 3.023-1.321 3.023-2.934v-.016c0-1.613-1.256-2.918-3.006-2.918-1.751 0-3.024 1.321-3.024 2.934v.016c0 1.613 1.257 2.918 3.007 2.918zm.017-1.151c-1.005 0-1.719-.811-1.719-1.783v-.016c0-.973.697-1.767 1.702-1.767s1.718.81 1.718 1.783v.016c0 .973-.696 1.767-1.701 1.767zm3.951 1.053h1.249v-1.702h.948c1.272 0 2.293-.68 2.293-1.993v-.017c0-1.158-.818-1.961-2.172-1.961h-2.318v5.673zm1.249-2.812v-1.734h.964c.624 0 1.013.3 1.013.859v.016c0 .486-.365.859-.989.859h-.988zm4.003 2.812h4.32v-1.11h-3.08v-1.191h2.675v-1.111h-2.675v-1.151h3.039v-1.11h-4.279v5.673zm5.268 0h1.232v-3.606l2.747 3.606h1.062v-5.673h-1.232v3.493l-2.659-3.493h-1.15v5.673zm-15.225 7.627c1.224 0 2.083-.632 2.083-1.758v-.017c0-.988-.649-1.402-1.8-1.702-.98-.251-1.223-.372-1.223-.745v-.016c0-.276.251-.495.729-.495s.973.211 1.475.559l.648-.94c-.575-.462-1.28-.721-2.107-.721-1.159 0-1.985.681-1.985 1.71v.016c0 1.127.737 1.443 1.88 1.735.948.243 1.143.405 1.143.721v.016c0 .333-.308.535-.819.535-.648 0-1.183-.267-1.694-.689l-.737.884c.68.608 1.548.907 2.407.907zm5.759.017c1.751 0 3.023-1.321 3.023-2.934v-.017c0-1.612-1.256-2.917-3.006-2.917-1.751 0-3.023 1.321-3.023 2.934v.016c0 1.613 1.256 2.918 3.006 2.918zm.017-1.151c-1.005 0-1.719-.811-1.719-1.783v-.017c0-.972.697-1.766 1.702-1.766s1.719.81 1.719 1.783v.016c0 .972-.697 1.767-1.702 1.767zm6.318 1.143c1.524 0 2.488-.843 2.488-2.562v-3.201h-1.248v3.25c0 .9-.462 1.362-1.224 1.362-.761 0-1.224-.479-1.224-1.403v-3.209h-1.248v3.242c0 1.669.932 2.521 2.456 2.521zm3.597-.09h1.249v-1.815h.98l1.216 1.815h1.459l-1.386-2.026c.721-.267 1.216-.843 1.216-1.759v-.016c0-.535-.17-.98-.486-1.297-.373-.372-.933-.575-1.654-.575h-2.594v5.673zm1.249-2.917v-1.629h1.24c.608 0 .98.275.98.81v.016c0 .478-.348.803-.956.803h-1.264zm7.105 3.015c1.094 0 1.742-.389 2.326-1.013l-.794-.803c-.446.405-.843.665-1.492.665-.972 0-1.645-.811-1.645-1.783v-.017c0-.972.689-1.766 1.645-1.766.568 0 1.013.243 1.451.64l.794-.916c-.526-.519-1.167-.875-2.237-.875-1.742 0-2.958 1.321-2.958 2.934v.016c0 1.629 1.24 2.918 2.91 2.918zm3.163-.098h4.32v-1.11h-3.08v-1.191h2.675v-1.111h-2.675v-1.151h3.039v-1.11h-4.279v5.673z" transform="translate(0 231.755)"/></g><g><path fill="none" fill-rule="nonzero" stroke="#fff" stroke-width="8.97" d="M152.182 82.774c18.82 6.99 28.645 20.451 28.645 43.619s-19.523 43.583-43.917 43.623c-25.742.042-45.16-20.37-44.85-43.623.31-23.252 11.399-38.721 29.148-44.315L89.767 4.729C47.686 15.623 4.887 65.266 4.887 126.393c0 72.401 58.175 131.094 131.09 131.094 72.914 0 132.023-58.693 132.023-131.094 0-62.078-42.393-111.029-85.372-121.881l-30.446 78.262z" transform="matrix(.09316 0 0 -.09316 766.5 586.204)"/></g><g><path fill="#fff" fill-rule="nonzero" d="M875.673 347.915h2.531v3.309a7.026 7.026 0 0 1-1.163.287c-.357.053-.733.08-1.109.08-.965 0-1.699-.286-2.208-.85-.501-.572-.761-1.377-.761-2.441 0-1.028.296-1.833.886-2.406.59-.581 1.404-.867 2.45-.867.653 0 1.288.134 1.896.393l-.447 1.082a3.244 3.244 0 0 0-1.458-.348c-.581 0-1.055.196-1.404.59-.349.393-.528.921-.528 1.583 0 .688.144 1.225.421 1.592.286.357.697.545 1.243.545.277 0 .572-.027.859-.089v-1.333h-1.208v-1.127z" transform="translate(0 220.382)"/></g><g><path fill="#fff" fill-rule="nonzero" d="M881.076 347.951h.438c.429 0 .742-.071.948-.214.206-.144.304-.367.304-.671 0-.304-.098-.519-.313-.644-.206-.134-.528-.197-.966-.197h-.411v1.726zm0 1.1v2.451h-1.35v-6.386h1.86c.867 0 1.511.161 1.923.474.42.313.626.796.626 1.44 0 .376-.108.707-.314 1.002-.205.295-.491.518-.876.688.966 1.431 1.592 2.361 1.878 2.782h-1.502l-1.521-2.451h-.724z" transform="translate(0 220.382)"/></g><g><path fill="#fff" fill-rule="nonzero" d="M889.305 351.502h-3.676v-6.386h3.676v1.109h-2.325v1.404h2.164v1.109h-2.164v1.646h2.325v1.118z" transform="translate(0 220.382)"/></g><g><path fill="#fff" fill-rule="nonzero" d="M894.314 351.502h-3.676v-6.386h3.676v1.109h-2.325v1.404h2.164v1.109h-2.164v1.646h2.325v1.118z" transform="translate(0 220.382)"/></g><g><path fill="#fff" fill-rule="nonzero" d="M901.308 351.502h-1.717l-2.781-4.83h-.036c.053.85.08 1.458.08 1.825v3.005h-1.207v-6.386h1.708l2.772 4.785h.027a37.144 37.144 0 0 1-.062-1.762v-3.023h1.216v6.386z" transform="translate(0 220.382)"/></g><g><path fill="#fff" fill-rule="nonzero" d="M878.481 342.559h-1.35v-2.755H874.6v2.755h-1.35v-6.386h1.35v2.504h2.531v-2.504h1.35v6.386z" transform="translate(0 238.269)"/></g><g><path fill="#fff" fill-rule="nonzero" d="M885.888 339.366c0 1.055-.269 1.869-.787 2.441-.528.564-1.279.85-2.254.85-.975 0-1.726-.286-2.254-.85-.528-.572-.787-1.386-.787-2.45 0-1.064.259-1.869.787-2.433.528-.563 1.279-.84 2.263-.84s1.735.277 2.254.849c.518.564.778 1.378.778 2.433zm-4.66 0c0 .715.134 1.252.403 1.61.268.366.679.545 1.216.545 1.082 0 1.619-.715 1.619-2.155s-.537-2.155-1.61-2.155c-.537 0-.948.178-1.216.545-.278.358-.412.894-.412 1.61z" transform="translate(0 238.26)"/></g><g><path fill="#fff" fill-rule="nonzero" d="M890.975 340.788c0 .572-.205 1.028-.617 1.359-.42.331-.992.501-1.735.501-.679 0-1.288-.134-1.806-.385v-1.261c.429.197.796.331 1.091.412.304.071.572.116.823.116.295 0 .518-.063.679-.17.161-.116.242-.286.242-.51a.542.542 0 0 0-.108-.331 1.172 1.172 0 0 0-.304-.286c-.134-.089-.411-.232-.831-.429-.385-.188-.68-.358-.877-.528a1.956 1.956 0 0 1-.465-.59 1.677 1.677 0 0 1-.179-.787c0-.563.197-1.011.573-1.332.384-.322.912-.483 1.591-.483.331 0 .645.035.949.116.304.08.617.188.948.331l-.439 1.055a6.168 6.168 0 0 0-.84-.295 2.833 2.833 0 0 0-.662-.081c-.259 0-.456.063-.59.179a.596.596 0 0 0-.206.465c0 .117.027.224.08.313.063.09.143.179.269.26.116.08.402.232.858.447.599.286 1.002.572 1.225.858.224.287.331.635.331 1.056z" transform="translate(0 238.268)"/></g><g><path fill="#fff" fill-rule="nonzero" d="M894.595 342.559h-1.35V337.3h-1.735v-1.127h4.82v1.127h-1.735v5.259z" transform="translate(0 238.269)"/></g><g><path fill="#fff" fill-rule="nonzero" d="M900.991 342.559h-3.676v-6.386h3.676v1.109h-2.326v1.404h2.165v1.109h-2.165v1.646h2.326v1.118z" transform="translate(0 238.269)"/></g><g><path fill="#fff" fill-rule="nonzero" d="M907.618 339.303c0 1.055-.295 1.86-.894 2.415-.599.563-1.467.841-2.594.841h-1.806v-6.386h2.003c1.046 0 1.851.277 2.424.823.581.554.867 1.323.867 2.307zm-1.404.036c0-1.368-.608-2.057-1.815-2.057h-.725v4.159h.582c1.305 0 1.958-.698 1.958-2.102z" transform="translate(0 238.269)"/></g><g><path fill="#fff" fill-rule="nonzero" d="M908.291 336.799c0-.241.062-.429.196-.554.135-.126.322-.188.573-.188.241 0 .429.062.563.197.134.125.197.304.197.545 0 .233-.063.412-.197.546-.134.134-.322.196-.563.196-.242 0-.429-.062-.564-.196-.134-.125-.205-.304-.205-.546z" transform="translate(0 243.402)"/></g><g><path fill="#fff" fill-rule="nonzero" d="M866.884 336.51a15.224 15.224 0 0 0-5.476-5.43l-.402-.233-.402.233a15.132 15.132 0 0 0-7.553 13.622c.08 2.352.98 4.332 2.602 5.725 1.242 1.066 2.834 1.716 4.55 1.871v2.775h1.607v-12.854h-1.607v8.462c-2.715-.314-5.417-2.232-5.546-6.034a13.585 13.585 0 0 1 6.349-11.934 13.585 13.585 0 0 1 6.349 11.934c-.103 3.042-1.853 4.877-3.939 5.651v1.7a7.861 7.861 0 0 0 2.943-1.571c1.622-1.393 2.522-3.373 2.602-5.725a15.12 15.12 0 0 0-2.077-8.192z" transform="translate(0 231.08)"/></g><g transform="matrix(.002 1 1 -.002 549.012 -301.015)"><path fill="#fff" d="M883.929 322.43H885.5319999999999V345.476H883.929z"/></g><g fill-rule="nonzero"><path fill="url(#b)" d="m727.814 203.608-10.908 25.2h-5.76l-10.872-25.2h6.3l7.668 18 7.776-18h5.796z" transform="translate(-16.357 27.683)"/><path fill="url(#c)" d="M747.038 219.196c0 .072-.036.576-.108 1.512h-14.652c.264 1.2.888 2.148 1.872 2.844.984.696 2.208 1.044 3.672 1.044 1.008 0 1.902-.15 2.682-.45.78-.3 1.506-.774 2.178-1.422l2.988 3.24c-1.824 2.088-4.488 3.132-7.992 3.132-2.184 0-4.116-.426-5.796-1.278-1.68-.852-2.976-2.034-3.888-3.546-.912-1.512-1.368-3.228-1.368-5.148 0-1.896.45-3.606 1.35-5.13a9.458 9.458 0 0 1 3.708-3.564c1.572-.852 3.33-1.278 5.274-1.278 1.896 0 3.612.408 5.148 1.224a8.934 8.934 0 0 1 3.618 3.51c.876 1.524 1.314 3.294 1.314 5.31zm-10.044-5.796c-1.272 0-2.34.36-3.204 1.08-.864.72-1.392 1.704-1.584 2.952h9.54c-.192-1.224-.72-2.202-1.584-2.934-.864-.732-1.92-1.098-3.168-1.098z" transform="translate(-16.357 27.683)"/><path fill="url(#d)" d="M770.762 209.44v16.128c0 3.552-.924 6.192-2.772 7.92-1.848 1.728-4.548 2.592-8.1 2.592-1.872 0-3.648-.228-5.328-.684-1.68-.456-3.072-1.116-4.176-1.98l2.232-4.032c.816.672 1.848 1.206 3.096 1.602a12.32 12.32 0 0 0 3.744.594c1.944 0 3.378-.438 4.302-1.314.924-.876 1.386-2.202 1.386-3.978v-.828c-1.464 1.608-3.504 2.412-6.12 2.412-1.776 0-3.402-.39-4.878-1.17a8.917 8.917 0 0 1-3.51-3.294c-.864-1.416-1.296-3.048-1.296-4.896 0-1.848.432-3.48 1.296-4.896a8.917 8.917 0 0 1 3.51-3.294c1.476-.78 3.102-1.17 4.878-1.17 2.808 0 4.944.924 6.408 2.772v-2.484h5.328zm-10.62 13.824c1.488 0 2.706-.438 3.654-1.314.948-.876 1.422-2.022 1.422-3.438 0-1.416-.474-2.562-1.422-3.438-.948-.876-2.166-1.314-3.654-1.314s-2.712.438-3.672 1.314c-.96.876-1.44 2.022-1.44 3.438 0 1.416.48 2.562 1.44 3.438.96.876 2.184 1.314 3.672 1.314z" transform="translate(-16.357 27.683)"/><path fill="url(#e)" d="M783.794 209.152c3 0 5.304.714 6.912 2.142 1.608 1.428 2.412 3.582 2.412 6.462v11.052h-5.256v-2.412c-1.056 1.8-3.024 2.7-5.904 2.7-1.488 0-2.778-.252-3.87-.756s-1.926-1.2-2.502-2.088c-.576-.888-.864-1.896-.864-3.024 0-1.8.678-3.216 2.034-4.248 1.356-1.032 3.45-1.548 6.282-1.548h4.464c0-1.224-.372-2.166-1.116-2.826-.744-.66-1.86-.99-3.348-.99a9.776 9.776 0 0 0-3.042.486c-.996.324-1.842.762-2.538 1.314l-2.016-3.924c1.056-.744 2.322-1.32 3.798-1.728a17.014 17.014 0 0 1 4.554-.612zm-.432 16.164c.96 0 1.812-.222 2.556-.666.744-.444 1.272-1.098 1.584-1.962v-1.98h-3.852c-2.304 0-3.456.756-3.456 2.268 0 .72.282 1.29.846 1.71.564.42 1.338.63 2.322.63z" transform="translate(-16.357 27.683)"/><path fill="url(#f)" d="M809.966 209.152c2.4 0 4.338.72 5.814 2.16 1.476 1.44 2.214 3.576 2.214 6.408v11.088h-5.616v-10.224c0-1.536-.336-2.682-1.008-3.438-.672-.756-1.644-1.134-2.916-1.134-1.416 0-2.544.438-3.384 1.314-.84.876-1.26 2.178-1.26 3.906v9.576h-5.616V209.44h5.364v2.268c.744-.816 1.668-1.446 2.772-1.89 1.104-.444 2.316-.666 3.636-.666z" transform="translate(-16.357 27.683)"/><path fill="url(#g)" d="M835.526 229.24c-2.568 0-4.89-.558-6.966-1.674-2.076-1.116-3.708-2.664-4.896-4.644-1.188-1.98-1.782-4.218-1.782-6.714 0-2.496.594-4.734 1.782-6.714 1.188-1.98 2.82-3.528 4.896-4.644s4.41-1.674 7.002-1.674c2.184 0 4.158.384 5.922 1.152 1.764.768 3.246 1.872 4.446 3.312l-3.744 3.456c-1.704-1.968-3.816-2.952-6.336-2.952-1.56 0-2.952.342-4.176 1.026a7.294 7.294 0 0 0-2.862 2.862c-.684 1.224-1.026 2.616-1.026 4.176s.342 2.952 1.026 4.176a7.294 7.294 0 0 0 2.862 2.862c1.224.684 2.616 1.026 4.176 1.026 2.52 0 4.632-.996 6.336-2.988l3.744 3.456a11.67 11.67 0 0 1-4.464 3.348c-1.776.768-3.756 1.152-5.94 1.152z" transform="translate(-16.357 27.683)"/><path fill="url(#h)" d="M861.23 209.152c2.4 0 4.338.72 5.814 2.16 1.476 1.44 2.214 3.576 2.214 6.408v11.088h-5.616v-10.224c0-1.536-.336-2.682-1.008-3.438-.672-.756-1.644-1.134-2.916-1.134-1.416 0-2.544.438-3.384 1.314-.84.876-1.26 2.178-1.26 3.906v9.576h-5.616v-26.712h5.616v9.36c.744-.744 1.644-1.314 2.7-1.71 1.056-.396 2.208-.594 3.456-.594z" transform="translate(-16.357 27.683)"/><path fill="url(#i)" d="M893.522 219.196c0 .072-.036.576-.108 1.512h-14.652c.264 1.2.888 2.148 1.872 2.844.984.696 2.208 1.044 3.672 1.044 1.008 0 1.902-.15 2.682-.45.78-.3 1.506-.774 2.178-1.422l2.988 3.24c-1.824 2.088-4.488 3.132-7.992 3.132-2.184 0-4.116-.426-5.796-1.278-1.68-.852-2.976-2.034-3.888-3.546-.912-1.512-1.368-3.228-1.368-5.148 0-1.896.45-3.606 1.35-5.13a9.458 9.458 0 0 1 3.708-3.564c1.572-.852 3.33-1.278 5.274-1.278 1.896 0 3.612.408 5.148 1.224a8.934 8.934 0 0 1 3.618 3.51c.876 1.524 1.314 3.294 1.314 5.31zm-10.044-5.796c-1.272 0-2.34.36-3.204 1.08-.864.72-1.392 1.704-1.584 2.952h9.54c-.192-1.224-.72-2.202-1.584-2.934-.864-.732-1.92-1.098-3.168-1.098z" transform="translate(-16.357 27.683)"/><path fill="url(#j)" d="M906.626 229.096c-2.064 0-3.918-.426-5.562-1.278-1.644-.852-2.928-2.034-3.852-3.546-.924-1.512-1.386-3.228-1.386-5.148 0-1.92.462-3.636 1.386-5.148.924-1.512 2.208-2.694 3.852-3.546 1.644-.852 3.498-1.278 5.562-1.278 2.04 0 3.822.426 5.346 1.278 1.524.852 2.634 2.07 3.33 3.654l-4.356 2.34c-1.008-1.776-2.46-2.664-4.356-2.664-1.464 0-2.676.48-3.636 1.44s-1.44 2.268-1.44 3.924c0 1.656.48 2.964 1.44 3.924s2.172 1.44 3.636 1.44c1.92 0 3.372-.888 4.356-2.664l4.356 2.376c-.696 1.536-1.806 2.736-3.33 3.6-1.524.864-3.306 1.296-5.346 1.296z" transform="translate(-16.357 27.683)"/><path fill="url(#k)" d="m926.714 221.212-2.7 2.664v4.932h-5.616v-26.712h5.616v15.12l8.208-7.776h6.696l-8.064 8.208 8.784 11.16h-6.804l-6.12-7.596z" transform="translate(-16.357 27.683)"/><path fill="url(#l)" d="M944.642 229.096c-.984 0-1.812-.336-2.484-1.008-.672-.672-1.008-1.512-1.008-2.52 0-1.032.336-1.866 1.008-2.502.672-.636 1.5-.954 2.484-.954s1.812.318 2.484.954c.672.636 1.008 1.47 1.008 2.502 0 1.008-.336 1.848-1.008 2.52-.672.672-1.5 1.008-2.484 1.008z" transform="translate(-16.357 27.683)"/><path fill="url(#m)" d="M976.754 209.152c2.424 0 4.35.714 5.778 2.142s2.142 3.57 2.142 6.426v11.088h-5.616v-10.224c0-1.536-.318-2.682-.954-3.438-.636-.756-1.542-1.134-2.718-1.134-1.32 0-2.364.426-3.132 1.278-.768.852-1.152 2.118-1.152 3.798v9.72h-5.616v-10.224c0-3.048-1.224-4.572-3.672-4.572-1.296 0-2.328.426-3.096 1.278-.768.852-1.152 2.118-1.152 3.798v9.72h-5.616V209.44h5.364v2.232a7.089 7.089 0 0 1 2.646-1.872c1.044-.432 2.19-.648 3.438-.648 1.368 0 2.604.27 3.708.81a6.567 6.567 0 0 1 2.664 2.358 7.945 7.945 0 0 1 3.006-2.34c1.212-.552 2.538-.828 3.978-.828z" transform="translate(-16.357 27.683)"/><path fill="url(#n)" d="M1008.9 219.196c0 .072-.03.576-.11 1.512h-14.648c.264 1.2.888 2.148 1.872 2.844.984.696 2.208 1.044 3.672 1.044 1.004 0 1.904-.15 2.684-.45.78-.3 1.5-.774 2.18-1.422l2.98 3.24c-1.82 2.088-4.48 3.132-7.988 3.132-2.184 0-4.116-.426-5.796-1.278-1.68-.852-2.976-2.034-3.888-3.546-.912-1.512-1.368-3.228-1.368-5.148 0-1.896.45-3.606 1.35-5.13a9.458 9.458 0 0 1 3.708-3.564c1.572-.852 3.33-1.278 5.274-1.278 1.898 0 3.608.408 5.148 1.224 1.54.816 2.74 1.986 3.62 3.51.87 1.524 1.31 3.294 1.31 5.31zm-10.042-5.796c-1.272 0-2.34.36-3.204 1.08-.864.72-1.392 1.704-1.584 2.952h9.54c-.19-1.224-.72-2.202-1.58-2.934-.87-.732-1.92-1.098-3.172-1.098z" transform="translate(-16.357 27.683)"/></g><g><path fill="#fff" fill-rule="nonzero" d="M58.12 35.88a3.001 3.001 0 0 0-2.045-.805c-1.646 0-3 1.354-3 3 0 .759.288 1.49.805 2.045L77.76 64 53.88 87.88a3 3 0 0 0-.955 2.195c0 1.646 1.354 3 3 3a3 3 0 0 0 2.195-.955l26-26a3.014 3.014 0 0 0 0-4.24l-26-26z" transform="matrix(.41049 0 0 .41049 1099.76 288.571)"/></g></g><path fill="#E2E2E2" fill-rule="nonzero" d="M1525 178.35H75v-61.908a8.36 8.36 0 0 1 8.36-8.36h1433.28c4.62 0 8.36 3.743 8.36 8.36v61.908z" transform="matrix(4.28891 0 0 4.29285 -92.65 -64.063)"/><path fill="#F15F59" fill-rule="nonzero" d="M113.95 143.216a7.838 7.838 0 1 1-15.676-.002 7.838 7.838 0 0 1 15.676.002z" transform="matrix(4.28891 0 0 4.29285 -92.65 -64.063)"/><path fill="#FBBE3A" fill-rule="nonzero" d="M140.453 143.216a7.838 7.838 0 0 1-7.838 7.837 7.837 7.837 0 0 1-7.838-7.837 7.837 7.837 0 0 1 7.838-7.838 7.838 7.838 0 0 1 7.838 7.838z" transform="matrix(4.28891 0 0 4.29285 -92.65 -64.063)"/><path fill="#66BD48" fill-rule="nonzero" d="M166.955 143.216a7.837 7.837 0 1 1-15.675 0 7.837 7.837 0 0 1 15.675 0z" transform="matrix(4.28891 0 0 4.29285 -92.65 -64.063)"/><path fill="#FDFDFD" fill-rule="nonzero" d="M222.109 161.22h-23.468a6.27 6.27 0 0 1-6.27-6.27v-23.469a6.27 6.27 0 0 1 6.27-6.27h23.468a6.27 6.27 0 0 1 6.27 6.27v23.469a6.27 6.27 0 0 1-6.27 6.27z" transform="matrix(4.28891 0 0 4.29285 -92.65 -64.063)"/><path fill="none" stroke="#CCC" stroke-linecap="butt" stroke-linejoin="miter" stroke-miterlimit="2" stroke-width=".45" d="M222.109 161.22h-23.468a6.27 6.27 0 0 1-6.27-6.27v-23.469a6.27 6.27 0 0 1 6.27-6.27h23.468a6.27 6.27 0 0 1 6.27 6.27v23.469a6.27 6.27 0 0 1-6.27 6.27z" transform="matrix(4.28891 0 0 4.29285 -92.65 -64.063)"/><path fill="#737374" fill-rule="nonzero" d="m212.144 134.833-8.895 7.626c-.397.341-.393 1.101 0 1.441l8.895 7.699c.987.854 2.435-.581 1.441-1.441l-8.895-7.699v1.441l8.895-7.627c.998-.855-.45-2.29-1.441-1.44z" transform="matrix(4.28891 0 0 4.29285 -92.65 -64.063)"/><path fill="#FDFDFD" fill-rule="nonzero" d="M238.508 125.211h23.468a6.271 6.271 0 0 1 6.271 6.27v23.469a6.27 6.27 0 0 1-6.271 6.27h-23.468a6.27 6.27 0 0 1-6.27-6.27v-23.469a6.27 6.27 0 0 1 6.27-6.27z" transform="matrix(4.28891 0 0 4.29285 -92.65 -64.063)"/><path fill="none" stroke="#CCC" stroke-linecap="butt" stroke-linejoin="miter" stroke-miterlimit="2" stroke-width=".45" d="M238.508 125.211h23.468a6.271 6.271 0 0 1 6.271 6.27v23.469a6.27 6.27 0 0 1-6.271 6.27h-23.468a6.27 6.27 0 0 1-6.27-6.27v-23.469a6.27 6.27 0 0 1 6.27-6.27z" transform="matrix(4.28891 0 0 4.29285 -92.65 -64.063)"/><path fill="#B4B3B4" fill-rule="nonzero" d="m247.984 151.599 8.895-7.627c.397-.341.393-1.1 0-1.441l-8.895-7.698c-.987-.855-2.435.581-1.442 1.44l8.896 7.699v-1.441l-8.896 7.627c-.997.855.451 2.291 1.442 1.441z" transform="matrix(4.28891 0 0 4.29285 -92.65 -64.063)"/><path fill="#FDFDFD" fill-rule="nonzero" d="M290.83 125.211h39.712a6.271 6.271 0 0 1 6.27 6.27v23.469a6.27 6.27 0 0 1-6.27 6.27H290.83a6.27 6.27 0 0 1-6.27-6.27v-23.469a6.27 6.27 0 0 1 6.27-6.27z" transform="matrix(4.28891 0 0 4.29285 -92.65 -64.063)"/><path fill="none" stroke="#CCC" stroke-linecap="butt" stroke-linejoin="miter" stroke-miterlimit="2" stroke-width=".45" d="M290.83 125.211h39.712a6.271 6.271 0 0 1 6.27 6.27v23.469a6.27 6.27 0 0 1-6.27 6.27H290.83a6.27 6.27 0 0 1-6.27-6.27v-23.469a6.27 6.27 0 0 1 6.27-6.27z" transform="matrix(4.28891 0 0 4.29285 -92.65 -64.063)"/><path fill="none" stroke="#737374" stroke-linecap="butt" stroke-linejoin="miter" stroke-miterlimit="2" stroke-width="1.36" d="M321.53 151.157h-21.214a.364.364 0 0 1-.365-.365v-15.99c0-.201.163-.365.365-.365h21.214c.202 0 .366.164.366.365v15.99a.365.365 0 0 1-.366.365zM307.266 134.959v16.721" transform="matrix(4.28891 0 0 4.29285 -92.65 -64.063)"/><path fill="none" stroke="#737374" stroke-linecap="butt" stroke-linejoin="miter" stroke-miterlimit="2" stroke-width="1.05" d="M302.563 140.707h2.09M302.563 137.572h2.09M302.563 143.842h2.09" transform="matrix(4.28891 0 0 4.29285 -92.65 -64.063)"/><path fill="#FDFDFD" fill-rule="nonzero" d="M1458.23 125.211h39.71c3.46 0 6.27 2.808 6.27 6.27v23.469c0 3.463-2.81 6.27-6.27 6.27h-39.71a6.272 6.272 0 0 1-6.27-6.27v-23.469c0-3.462 2.81-6.27 6.27-6.27z" transform="matrix(4.28891 0 0 4.29285 -92.65 -64.063)"/><path fill="none" stroke="#CCC" stroke-linecap="butt" stroke-linejoin="miter" stroke-miterlimit="2" stroke-width=".45" d="M1458.23 125.211h39.71c3.46 0 6.27 2.808 6.27 6.27v23.469c0 3.463-2.81 6.27-6.27 6.27h-39.71a6.272 6.272 0 0 1-6.27-6.27v-23.469c0-3.462 2.81-6.27 6.27-6.27z" transform="matrix(4.28891 0 0 4.29285 -92.65 -64.063)"/><path fill="none" stroke="#737374" stroke-linecap="butt" stroke-linejoin="miter" stroke-miterlimit="2" stroke-width="1.36" d="M1483.36 146.906h2.41c.2 0 .36-.165.36-.366v-10.652a.363.363 0 0 0-.36-.366h-10.65c-.21 0-.37.165-.37.366v2.255" transform="matrix(4.28891 0 0 4.29285 -92.65 -64.063)"/><path fill="none" stroke="#737374" stroke-linecap="butt" stroke-linejoin="miter" stroke-miterlimit="2" stroke-width="1.36" d="M1481.27 151.237h-10.65a.37.37 0 0 1-.37-.366v-10.652a.37.37 0 0 1 .37-.365h10.65c.2 0 .37.163.37.365v10.652a.37.37 0 0 1-.37.366z" transform="matrix(4.28891 0 0 4.29285 -92.65 -64.063)"/><path fill="#fff" fill-rule="nonzero" d="M1218.32 161.686H462.944a6.27 6.27 0 0 1-6.27-6.27v-24.4a6.27 6.27 0 0 1 6.27-6.27h755.376c3.46 0 6.27 2.807 6.27 6.27v24.4c0 3.462-2.81 6.27-6.27 6.27z" transform="matrix(4.28891 0 0 4.29285 -92.65 -64.063)"/><path fill="none" stroke="#737374" stroke-linejoin="miter" stroke-miterlimit="2" stroke-width="1.36" d="M1208.32 135.768c-.95-.403-2-.625-3.1-.625s-2.14.222-3.09.625a7.87 7.87 0 0 0-2.53 1.704 7.923 7.923 0 0 0-1.71 2.528c-.4.951-.62 1.997-.62 3.095s.22 2.144.62 3.096c.4.951.99 1.808 1.71 2.528a7.887 7.887 0 0 0 2.53 1.704c.95.403 1.99.625 3.09.625 1.1 0 2.15-.222 3.1-.625a7.843 7.843 0 0 0 2.52-1.704 7.945 7.945 0 0 0 1.71-2.528c.4-.952.62-1.998.62-3.096" transform="matrix(4.28891 0 0 4.29285 -92.65 -64.063)"/><path fill="#737374" fill-rule="nonzero" d="m1205.81 131.718 6.62 4.071-6.84 3.703.22-7.774z" transform="matrix(4.28891 0 0 4.29285 -92.65 -64.063)"/></g></g><defs><linearGradient id="b" x1="0" x2="1" y1="0" y2="0" gradientTransform="translate(698.646 212.995) scale(301.755)" gradientUnits="userSpaceOnUse"><stop offset="0" stop-color="#2E86DE"/><stop offset="1" stop-color="#00FFB8"/></linearGradient><linearGradient id="c" x1="0" x2="1" y1="0" y2="0" gradientTransform="translate(698.646 212.995) scale(301.755)" gradientUnits="userSpaceOnUse"><stop offset="0" stop-color="#2E86DE"/><stop offset="1" stop-color="#00FFB8"/></linearGradient><linearGradient id="d" x1="0" x2="1" y1="0" y2="0" gradientTransform="translate(698.646 212.995) scale(301.755)" gradientUnits="userSpaceOnUse"><stop offset="0" stop-color="#2E86DE"/><stop offset="1" stop-color="#00FFB8"/></linearGradient><linearGradient id="e" x1="0" x2="1" y1="0" y2="0" gradientTransform="translate(698.646 212.995) scale(301.755)" gradientUnits="userSpaceOnUse"><stop offset="0" stop-color="#2E86DE"/><stop offset="1" stop-color="#00FFB8"/></linearGradient><linearGradient id="f" x1="0" x2="1" y1="0" y2="0" gradientTransform="translate(698.646 212.995) scale(301.755)" gradientUnits="userSpaceOnUse"><stop offset="0" stop-color="#2E86DE"/><stop offset="1" stop-color="#00FFB8"/></linearGradient><linearGradient id="g" x1="0" x2="1" y1="0" y2="0" gradientTransform="translate(698.646 212.995) scale(301.755)" gradientUnits="userSpaceOnUse"><stop offset="0" stop-color="#2E86DE"/><stop offset="1" stop-color="#00FFB8"/></linearGradient><linearGradient id="h" x1="0" x2="1" y1="0" y2="0" gradientTransform="translate(698.646 212.995) scale(301.755)" gradientUnits="userSpaceOnUse"><stop offset="0" stop-color="#2E86DE"/><stop offset="1" stop-color="#00FFB8"/></linearGradient><linearGradient id="i" x1="0" x2="1" y1="0" y2="0" gradientTransform="translate(698.646 212.995) scale(301.755)" gradientUnits="userSpaceOnUse"><stop offset="0" stop-color="#2E86DE"/><stop offset="1" stop-color="#00FFB8"/></linearGradient><linearGradient id="j" x1="0" x2="1" y1="0" y2="0" gradientTransform="translate(698.646 212.995) scale(301.755)" gradientUnits="userSpaceOnUse"><stop offset="0" stop-color="#2E86DE"/><stop offset="1" stop-color="#00FFB8"/></linearGradient><linearGradient id="k" x1="0" x2="1" y1="0" y2="0" gradientTransform="translate(698.646 212.995) scale(301.755)" gradientUnits="userSpaceOnUse"><stop offset="0" stop-color="#2E86DE"/><stop offset="1" stop-color="#00FFB8"/></linearGradient><linearGradient id="l" x1="0" x2="1" y1="0" y2="0" gradientTransform="translate(698.646 212.995) scale(301.755)" gradientUnits="userSpaceOnUse"><stop offset="0" stop-color="#2E86DE"/><stop offset="1" stop-color="#00FFB8"/></linearGradient><linearGradient id="m" x1="0" x2="1" y1="0" y2="0" gradientTransform="translate(698.646 212.995) scale(301.755)" gradientUnits="userSpaceOnUse"><stop offset="0" stop-color="#2E86DE"/><stop offset="1" stop-color="#00FFB8"/></linearGradient><linearGradient id="n" x1="0" x2="1" y1="0" y2="0" gradientTransform="translate(698.646 212.995) scale(301.755)" gradientUnits="userSpaceOnUse"><stop offset="0" stop-color="#2E86DE"/><stop offset="1" stop-color="#00FFB8"/></linearGradient></defs></svg>